<svg xmlns="http://www.w3.org/2000/svg" width="200" height="200" viewBox="0 0 52.917 52.917"><path d="M-128.85-106.676c-1.615-20.555 4.943-39.629 27.964-49.332-15.922 40.687 28.24 81.653 64.266 59.914-4.566 13.543-12.308 21.282-28.177 26.552" fill="none" stroke="#000" stroke-width="4" stroke-linecap="round" stroke-linejoin="round"/><path d="M-173.592-298.554a43.273 43.273 0 00-41.66 31.338c-15.01.34-27.117 12.657-27.117 27.744 0 15.303 12.451 27.75 27.754 27.75h82.601c17.69 0 32.08-14.394 32.075-32.084 0-17.68-14.393-32.066-32.079-32.066-1.064 0-2.162.065-3.364.198-7.604-14.152-22.106-22.88-38.21-22.88zm0 4.312c14.971 0 28.409 8.38 35.06 21.86a2.158 2.158 0 002.25 1.176c1.624-.245 2.98-.357 4.268-.357 15.312 0 27.771 12.45 27.771 27.757 0 15.312-12.46 27.771-27.77 27.771h-82.602c-12.929 0-23.445-10.512-23.445-23.437 0-12.924 10.52-23.44 23.445-23.44l.948.051c1.03-.047 1.904-.655 2.146-1.637a38.985 38.985 0 0137.93-29.744z"/><path d="M-132.014-275.867a32.066 32.066 0 00-24.173 10.985 2.16 2.16 0 00.207 3.042c.9.78 2.258.69 3.042-.207a27.761 27.761 0 0120.924-9.512c15.312 0 27.771 12.45 27.771 27.758 0 15.311-12.46 27.77-27.77 27.77a2.155 2.155 0 000 4.308c17.689 0 32.079-14.393 32.079-32.078 0-17.681-14.394-32.066-32.08-32.066zM-147.652 43.53a1.528 1.528 0 01-1.455-1.996l2.806-8.725a1.532 1.532 0 011.922-.988 1.526 1.526 0 01.988 1.923l-2.806 8.728a1.53 1.53 0 01-1.455 1.058zm5.614-17.457a1.526 1.526 0 01-1.455-1.996l2.806-8.729a1.534 1.534 0 011.923-.987 1.528 1.528 0 01.987 1.923l-2.806 8.728a1.527 1.527 0 01-1.455 1.06zm98.715 45.787a1.528 1.528 0 01-1.455-1.996l2.805-8.725a1.532 1.532 0 011.923-.987 1.526 1.526 0 01.987 1.922l-2.806 8.729a1.53 1.53 0 01-1.454 1.057zm5.614-17.457a1.526 1.526 0 01-1.455-1.996l2.806-8.728a1.534 1.534 0 011.922-.987 1.528 1.528 0 01.987 1.922l-2.805 8.729a1.527 1.527 0 01-1.455 1.06zM-132.37 43.53a1.528 1.528 0 01-1.455-1.996l2.805-8.725a1.532 1.532 0 011.922-.988 1.526 1.526 0 01.988 1.923l-2.806 8.728a1.53 1.53 0 01-1.455 1.058zm5.613-17.457a1.526 1.526 0 01-1.455-1.996l2.806-8.729a1.534 1.534 0 011.923-.987 1.528 1.528 0 01.987 1.923l-2.806 8.728a1.527 1.527 0 01-1.455 1.06zm40.013-246.254a43.273 43.273 0 00-41.66 31.338c-15.01.34-27.116 12.657-27.116 27.744 0 15.303 12.45 27.75 27.754 27.75h82.6c17.69 0 32.08-14.394 32.076-32.084 0-17.68-14.394-32.065-32.08-32.065-1.063 0-2.162.064-3.364.198-7.604-14.153-22.105-22.881-38.21-22.881zm0 4.312c14.972 0 28.409 8.38 35.06 21.86a2.158 2.158 0 002.25 1.176c1.624-.245 2.98-.357 4.269-.357 15.311 0 27.77 12.45 27.77 27.757 0 15.312-12.459 27.771-27.77 27.771h-82.601c-12.93 0-23.446-10.512-23.446-23.437 0-12.924 10.521-23.44 23.446-23.44l.947.051c1.03-.047 1.905-.655 2.146-1.637a38.985 38.985 0 0137.93-29.744z"/><path d="M-45.165-197.494a32.066 32.066 0 00-24.173 10.986 2.16 2.16 0 00.206 3.041c.9.78 2.258.69 3.042-.206a27.761 27.761 0 0120.925-9.513c15.311 0 27.77 12.45 27.77 27.758 0 15.311-12.459 27.77-27.77 27.77a2.155 2.155 0 000 4.309c17.69 0 32.079-14.394 32.079-32.079 0-17.68-14.394-32.066-32.08-32.066zM358.427 79.48h-64.88c-12.02 0-21.8-9.776-21.8-21.796 0-11.85 9.51-21.525 21.299-21.792a33.989 33.989 0 0132.723-24.615c12.65 0 24.04 6.856 30.012 17.972a23.749 23.749 0 012.643-.156c13.891 0 25.197 11.3 25.197 25.187.003 13.895-11.299 25.2-25.194 25.2zm-64.88-40.208c-10.152 0-18.416 8.26-18.416 18.412s8.26 18.41 18.416 18.41h64.88c12.027 0 21.813-9.787 21.813-21.814 0-12.023-9.786-21.803-21.813-21.803-1.011 0-2.077.088-3.353.281a1.695 1.695 0 01-1.766-.924c-5.225-10.588-15.78-17.17-27.54-17.17a30.621 30.621 0 00-29.792 23.363c-.189.771-.876 1.249-1.685 1.286z"/><path d="M355.781 29.249a1.693 1.693 0 010-3.384c12.027 0 21.813-9.786 21.813-21.813 0-12.023-9.786-21.803-21.813-21.803a21.806 21.806 0 00-16.436 7.472 1.696 1.696 0 01-2.389.162 1.696 1.696 0 01-.162-2.389 25.187 25.187 0 0118.987-8.629c13.891 0 25.197 11.3 25.197 25.187 0 13.891-11.302 25.197-25.197 25.197zM-270.923-51.47a2.133 2.133 0 01-2.03-2.785l3.915-12.177a2.138 2.138 0 012.683-1.378 2.13 2.13 0 011.378 2.683l-3.916 12.181c-.29.9-1.13 1.476-2.03 1.476zm7.835-24.363a2.13 2.13 0 01-2.03-2.785l3.915-12.181a2.141 2.141 0 012.683-1.378 2.133 2.133 0 011.378 2.683l-3.916 12.181a2.13 2.13 0 01-2.03 1.48zm34.817 24.363a2.133 2.133 0 01-2.03-2.785l3.915-12.177a2.138 2.138 0 012.683-1.378 2.13 2.13 0 011.377 2.683l-3.915 12.181c-.29.9-1.13 1.476-2.03 1.476zm7.835-24.363a2.13 2.13 0 01-2.03-2.785l3.915-12.181a2.141 2.141 0 012.683-1.378 2.133 2.133 0 011.377 2.683l-3.915 12.181a2.13 2.13 0 01-2.03 1.48zm-29.161 24.363a2.133 2.133 0 01-2.03-2.785l3.915-12.177a2.138 2.138 0 012.683-1.378 2.13 2.13 0 011.377 2.683l-3.915 12.181c-.29.9-1.13 1.476-2.03 1.476zm7.835-24.363a2.13 2.13 0 01-2.03-2.785l3.915-12.181a2.141 2.141 0 012.683-1.378 2.133 2.133 0 011.378 2.683l-3.916 12.181a2.13 2.13 0 01-2.03 1.48zm637.348-161.329c-.433 0-.866-.165-1.198-.497a1.697 1.697 0 01.004-2.396c5.045-5.022 7.823-11.708 7.823-18.828 0-14.653-11.918-26.574-26.574-26.574a26.584 26.584 0 00-20.09 9.18 1.696 1.696 0 01-2.39.17 1.696 1.696 0 01-.169-2.39 29.972 29.972 0 0122.649-10.348c16.517 0 29.958 13.438 29.958 29.958 0 8.027-3.13 15.567-8.815 21.228a1.686 1.686 0 01-1.198.497zm-19.945-61.297a1.693 1.693 0 01-1.692-1.692v-12.7a1.693 1.693 0 013.384 0v12.7c0 .934-.758 1.692-1.692 1.692zm53.974 41.268h-12.7a1.693 1.693 0 010-3.384h12.7a1.693 1.693 0 010 3.384zm-24.791-29.183a1.7 1.7 0 01-1.198-.495 1.693 1.693 0 010-2.392l8.981-8.978a1.693 1.693 0 012.392 2.392l-8.98 8.978a1.686 1.686 0 01-1.195.495zm8.978 67.347a1.7 1.7 0 01-1.198-.494l-8.978-8.974a1.693 1.693 0 010-2.393c.66-.66 1.733-.66 2.393 0l8.978 8.975c.66.66.66 1.732 0 2.392a1.672 1.672 0 01-1.195.494zm-67.351-67.347a1.7 1.7 0 01-1.198-.495l-8.974-8.977a1.693 1.693 0 010-2.393c.66-.66 1.732-.66 2.392 0l8.975 8.978c.66.66.66 1.733 0 2.392a1.686 1.686 0 01-1.195.495zm-330.053-8.112c-.224-.447-.559-.67-1.006-.67H2.206L15.28-315.83a1.015 1.015 0 000-1.118c-.223-.335-.558-.558-1.005-.558h-17.88c-.446 0-.781.223-1.005.558l-16.761 33.523a1.015 1.015 0 000 1.118c.223.335.67.558 1.005.558h11.51l-12.515 29.836c-.224.447 0 1.005.447 1.34.111.112.335.112.558.112.336 0 .67-.111.894-.335l35.758-42.462c.224-.336.335-.782.112-1.23zm-32.853 36.54l10.28-24.584c.112-.335.112-.67-.11-1.006-.224-.223-.56-.446-.895-.446h-11.398l15.644-31.289h15.197L-.922-294.598a1.015 1.015 0 000 1.117c.223.335.558.559 1.005.559h12.963zm-2.252-35.474c-.324-.647-.81-.971-1.457-.971h-19.112l18.95-29.964a1.47 1.47 0 000-1.62c-.324-.485-.81-.81-1.458-.81h-25.914c-.648 0-1.134.325-1.458.81l-24.295 48.59a1.47 1.47 0 000 1.62c.324.486.972.81 1.458.81h16.682l-18.14 43.244c-.324.648 0 1.458.648 1.944.162.162.486.162.81.162.486 0 .972-.162 1.296-.486l51.829-61.547c.323-.486.485-1.134.161-1.781zm-47.618 52.963l14.901-35.632c.162-.486.162-.972-.162-1.458-.324-.324-.81-.648-1.295-.648h-16.52l22.674-45.35h22.028l-19.112 29.963a1.47 1.47 0 000 1.62c.324.486.81.81 1.457.81h18.788zM45.684 23.958a.46.46 0 010-.918 5.923 5.923 0 005.917-5.917 5.922 5.922 0 00-5.917-5.914c-.273 0-.563.024-.91.076a.46.46 0 01-.479-.25c-1.417-2.875-4.28-4.66-7.469-4.66a8.306 8.306 0 00-8.081 6.338c-.252.366-.16.456-.638.462-.084-.022-.528-.178-.158-1.04.898-3.79 4.737-6.677 8.876-6.677a9.193 9.193 0 018.141 4.875c.257-.028.49-.042.717-.042 3.77 0 6.835 3.065 6.835 6.832.002 3.769-3.065 6.835-6.834 6.835z"/><path d="M45.684 23.958a.46.46 0 010-.918 5.923 5.923 0 005.917-5.917 5.922 5.922 0 00-5.917-5.914 5.92 5.92 0 00-4.46 2.026.459.459 0 01-.691-.603 6.832 6.832 0 015.151-2.34c3.77 0 6.835 3.065 6.835 6.832a6.842 6.842 0 01-6.835 6.834zM33.362 37.936a.64.64 0 010-1.281c4.554 0 8.257-3.705 8.257-8.258 0-4.551-3.704-8.253-8.257-8.253-.382 0-.786.033-1.27.106a.64.64 0 01-.668-.35C29.446 15.89 25.45 13.4 21 13.4c-5.36 0-9.998 3.637-11.279 8.844-.071.292-.356.478-.638.487l-.162-.009h-.012c-3.958 0-7.08 3.125-7.08 6.965 0 3.843 3.127 6.969 6.971 6.969a.64.64 0 010 1.281c-4.55 0-8.252-3.7-8.252-8.25 0-4.486 3.6-8.149 8.063-8.25a12.87 12.87 0 0112.387-9.318c4.789 0 9.1 2.595 11.362 6.804.359-.04.684-.06 1-.06 5.26 0 9.54 4.278 9.54 9.535.002 5.26-4.278 9.539-9.538 9.539z"/><path d="M33.362 37.936a.64.64 0 010-1.281c4.554 0 8.257-3.705 8.257-8.258 0-4.551-3.704-8.253-8.257-8.253a8.262 8.262 0 00-6.224 2.828.64.64 0 01-.965-.842 9.535 9.535 0 017.189-3.266c5.26 0 9.538 4.277 9.538 9.535.002 5.258-4.278 9.537-9.538 9.537zm-13.226-1.633h-.813l.198-.198a.192.192 0 00-.272-.272l-.47.47h-.84l.58-.58a.192.192 0 00-.272-.273l-.853.853h-1.506l1.065-1.065h1.206a.192.192 0 000-.385h-.821l.594-.594h1.206a.192.192 0 000-.385h-.821l.574-.575a.192.192 0 00-.272-.272l-.574.575v-.821a.192.192 0 00-.385 0v1.205l-.594.595v-.821a.192.192 0 00-.385 0v1.206l-1.065 1.065v-1.506l.853-.853a.192.192 0 00-.272-.272l-.581.58v-.84l.853-.853a.192.192 0 00-.272-.272l-.58.58v-.812a.192.192 0 00-.386 0v.813l-.58-.58a.192.192 0 00-.272.271l.852.853v.84l-.58-.58a.192.192 0 00-.272.272l.852.853v1.506l-1.065-1.065V33.76a.192.192 0 00-.384 0v.821l-.595-.595v-1.205a.192.192 0 00-.384 0v.82l-.575-.574a.192.192 0 00-.272.272l.574.575h-.82a.192.192 0 000 .384h1.205l.595.595h-.821a.192.192 0 000 .385h1.205l1.065 1.065h-1.506l-.852-.853a.192.192 0 00-.272.272l.58.58h-.84l-.853-.852a.192.192 0 00-.272.272l.58.58h-.812a.192.192 0 000 .385h.812l-.58.58a.192.192 0 00.272.273l.852-.853h.841l-.58.58a.192.192 0 00.272.273l.852-.853h1.506l-1.065 1.065H12.69a.192.192 0 000 .385h.82l-.594.594H11.71a.192.192 0 000 .385h.821l-.574.575a.192.192 0 00.272.272l.574-.575v.821a.192.192 0 00.385 0v-1.205l.595-.595v.821a.192.192 0 00.384 0v-1.206l1.065-1.065v1.506l-.852.853a.192.192 0 00.272.272l.58-.58v.84l-.852.853a.192.192 0 00.272.272l.58-.58v.812a.192.192 0 00.385 0v-.813l.58.58a.192.192 0 00.272 0 .192.192 0 000-.271l-.852-.853v-.84l.58.58a.192.192 0 00.272 0 .192.192 0 000-.272l-.852-.853V36.96l1.065 1.065v1.206a.192.192 0 00.385 0v-.821l.594.595v1.205a.192.192 0 00.385 0v-.82l.574.574a.192.192 0 00.272 0 .192.192 0 000-.272l-.574-.575h.82a.192.192 0 000-.384h-1.205l-.594-.595h.82a.192.192 0 000-.385h-1.205l-1.065-1.065h1.506l.853.853a.192.192 0 00.272 0 .192.192 0 000-.272l-.58-.58h.84l.852.852a.192.192 0 00.272 0 .192.192 0 000-.272l-.58-.58h.813a.192.192 0 000-.385z"/><path d="M19.767 36.303c-.247 0-.247.384 0 .384.248 0 .248-.384 0-.384zm3.75 7.72h-.569l.139-.138a.134.134 0 00-.19-.19l-.329.328h-.588l.406-.406a.134.134 0 00-.19-.19l-.596.596h-1.053l.745-.744h.843a.134.134 0 000-.27h-.574l.415-.415h.843a.134.134 0 000-.269h-.574l.402-.402a.134.134 0 00-.19-.19l-.402.402v-.574a.134.134 0 00-.269 0v.843l-.415.415v-.574a.134.134 0 00-.27 0v.843l-.744.745V42.78l.596-.596a.134.134 0 00-.19-.19l-.406.406v-.588l.596-.596a.134.134 0 00-.19-.19l-.406.406v-.569a.135.135 0 00-.269 0v.569l-.406-.406a.134.134 0 00-.19.19l.596.596v.588l-.406-.406a.134.134 0 00-.19.19l.596.596v1.053l-.744-.745v-.843a.134.134 0 00-.27 0v.574l-.415-.415v-.843a.134.134 0 00-.269 0v.574l-.402-.402a.134.134 0 00-.19.19l.402.402h-.574a.134.134 0 000 .269h.843l.416.416h-.574a.134.134 0 000 .268h.843l.744.745h-1.053l-.596-.596a.135.135 0 00-.19.19l.406.406h-.588l-.596-.596a.135.135 0 00-.19.19l.406.406h-.568a.135.135 0 000 .269h.568l-.406.406a.134.134 0 00.19.19l.596-.596h.588l-.406.406a.134.134 0 00.19.19l.596-.596h1.053l-.744.744h-.843a.134.134 0 000 .27h.574l-.416.415h-.843a.134.134 0 000 .269h.574l-.402.402a.134.134 0 00.19.19l.402-.402v.574a.134.134 0 00.27 0v-.843l.415-.416v.574a.134.134 0 00.269 0v-.842l.744-.745v1.053l-.596.596a.134.134 0 00.19.19l.406-.406v.588l-.596.596a.134.134 0 00.19.19l.406-.406v.568a.134.134 0 00.269 0v-.568l.406.406a.134.134 0 00.19 0 .134.134 0 000-.19l-.596-.596v-.588l.406.406a.134.134 0 00.19 0 .134.134 0 000-.19l-.596-.596v-1.053l.745.745v.842a.134.134 0 00.268 0v-.574l.416.416v.843a.134.134 0 00.269 0v-.574l.402.402a.134.134 0 00.19 0 .134.134 0 000-.19l-.402-.402h.574a.134.134 0 000-.27h-.843l-.415-.415h.574a.134.134 0 000-.269h-.843l-.745-.744H21.6l.596.596a.134.134 0 00.19 0 .134.134 0 000-.19l-.406-.406h.588l.596.596a.134.134 0 00.19 0 .134.134 0 000-.19l-.406-.406h.569a.134.134 0 000-.269z"/><path d="M23.26 44.023c-.174 0-.174.269 0 .269.172 0 .173-.269 0-.269zm9.952-9.106h-.982l.239-.24a.232.232 0 00-.329-.328l-.568.568h-1.015l.701-.702a.232.232 0 00-.329-.328l-1.03 1.03h-1.82l1.287-1.287h1.457a.232.232 0 000-.465h-.992l.718-.718h1.457a.232.232 0 000-.465h-.992l.695-.694a.232.232 0 00-.33-.329l-.693.694v-.992a.232.232 0 00-.465 0v1.457l-.719.719v-.993a.232.232 0 00-.464 0v1.457l-1.287 1.287v-1.82l1.03-1.03a.232.232 0 00-.329-.329l-.701.702v-1.016l1.03-1.03a.232.232 0 00-.329-.329l-.701.702v-.982a.233.233 0 00-.465 0v.982l-.702-.702a.232.232 0 00-.328.329l1.03 1.03v1.016l-.702-.702a.232.232 0 00-.328.33l1.03 1.03v1.82L25.999 33.3v-1.457a.232.232 0 00-.465 0v.993l-.718-.719V30.66a.232.232 0 00-.465 0v.992l-.694-.694a.232.232 0 00-.33.329l.695.694h-.992a.232.232 0 000 .465h1.457l.719.718h-.993a.232.232 0 000 .465h1.457l1.287 1.287h-1.82l-1.03-1.03a.232.232 0 00-.329.328l.702.702h-1.016l-1.03-1.03a.232.232 0 00-.329.328l.702.702h-.982a.233.233 0 000 .465h.982l-.702.701a.232.232 0 00.329.329l1.03-1.03h1.016l-.702.701a.232.232 0 00.33.329l1.03-1.03h1.82l-1.288 1.287h-1.457a.232.232 0 000 .464h.993l-.719.719H23.03a.232.232 0 000 .464h.992l-.694.695a.232.232 0 00.329.329l.694-.695v.992a.232.232 0 00.465 0V38.18l.718-.718v.992a.232.232 0 00.465 0v-1.457l1.287-1.287v1.82l-1.03 1.03a.232.232 0 00.328.33l.702-.702v1.016l-1.03 1.03a.232.232 0 00.328.328l.702-.701v.982a.232.232 0 00.465 0v-.982l.701.701a.232.232 0 00.329 0 .232.232 0 000-.328l-1.03-1.03v-1.016l.701.701a.232.232 0 00.329 0 .232.232 0 000-.329l-1.03-1.03v-1.82l1.286 1.287v1.457a.232.232 0 00.465 0v-.992l.719.718v1.457a.232.232 0 00.464 0v-.992l.695.695a.232.232 0 00.328 0 .232.232 0 000-.33l-.694-.693h.992a.232.232 0 000-.465H30.55l-.718-.719h.992a.232.232 0 000-.464h-1.457l-1.287-1.287h1.82l1.03 1.03a.232.232 0 00.329 0 .232.232 0 000-.329l-.701-.701h1.016l1.03 1.03a.232.232 0 00.328 0 .232.232 0 000-.329l-.701-.701h.982a.232.232 0 000-.465z"/><path d="M32.767 34.917c-.3 0-.3.465 0 .465s.3-.465 0-.465z"/></svg>