<?xml version="1.0" encoding="UTF-8" standalone="no"?>
<!-- Created with Inkscape (http://www.inkscape.org/) -->

<svg
   xmlns:dc="http://purl.org/dc/elements/1.1/"
   xmlns:cc="http://creativecommons.org/ns#"
   xmlns:rdf="http://www.w3.org/1999/02/22-rdf-syntax-ns#"
   xmlns:svg="http://www.w3.org/2000/svg"
   xmlns="http://www.w3.org/2000/svg"
   xmlns:sodipodi="http://sodipodi.sourceforge.net/DTD/sodipodi-0.dtd"
   xmlns:inkscape="http://www.inkscape.org/namespaces/inkscape"
   width="200"
   height="200"
   viewBox="0 0 52.916665 52.916668"
   version="1.1"
   id="svg8"
   inkscape:version="0.92.3 (2405546, 2018-03-11)"
   sodipodi:docname="cloud-n.svg">
  <defs
     id="defs2" />
  <sodipodi:namedview
     id="base"
     pagecolor="#ffffff"
     bordercolor="#666666"
     borderopacity="1.0"
     inkscape:pageopacity="0.0"
     inkscape:pageshadow="2"
     inkscape:zoom="1.4"
     inkscape:cx="111.99842"
     inkscape:cy="137.27002"
     inkscape:document-units="mm"
     inkscape:current-layer="layer1"
     showgrid="false"
     inkscape:window-width="1366"
     inkscape:window-height="713"
     inkscape:window-x="0"
     inkscape:window-y="27"
     inkscape:window-maximized="1"
     units="px" />
  <metadata
     id="metadata5">
    <rdf:RDF>
      <cc:Work
         rdf:about="">
        <dc:format>image/svg+xml</dc:format>
        <dc:type
           rdf:resource="http://purl.org/dc/dcmitype/StillImage" />
        <dc:title></dc:title>
      </cc:Work>
    </rdf:RDF>
  </metadata>
  <g
     inkscape:label="Layer 1"
     inkscape:groupmode="layer"
     id="layer1"
     transform="translate(0,-244.08332)">
    <g
       id="g1026"
       transform="matrix(4.3082215,0,0,4.3082215,-134.29872,3.4726037)" />
    <g
       id="g1028"
       transform="matrix(4.3082215,0,0,4.3082215,-134.29872,3.4726037)" />
    <g
       id="g1030"
       transform="matrix(4.3082215,0,0,4.3082215,-134.29872,3.4726037)" />
    <g
       id="g1032"
       transform="matrix(4.3082215,0,0,4.3082215,-134.29872,3.4726037)" />
    <g
       id="g1034"
       transform="matrix(4.3082215,0,0,4.3082215,-134.29872,3.4726037)" />
    <g
       id="g1036"
       transform="matrix(4.3082215,0,0,4.3082215,-134.29872,3.4726037)" />
    <g
       id="g1038"
       transform="matrix(4.3082215,0,0,4.3082215,-134.29872,3.4726037)" />
    <g
       id="g1040"
       transform="matrix(4.3082215,0,0,4.3082215,-134.29872,3.4726037)" />
    <g
       id="g1042"
       transform="matrix(4.3082215,0,0,4.3082215,-134.29872,3.4726037)" />
    <g
       id="g1044"
       transform="matrix(4.3082215,0,0,4.3082215,-134.29872,3.4726037)" />
    <g
       id="g1046"
       transform="matrix(4.3082215,0,0,4.3082215,-134.29872,3.4726037)" />
    <g
       id="g1048"
       transform="matrix(4.3082215,0,0,4.3082215,-134.29872,3.4726037)" />
    <g
       id="g1050"
       transform="matrix(4.3082215,0,0,4.3082215,-134.29872,3.4726037)" />
    <g
       id="g1052"
       transform="matrix(4.3082215,0,0,4.3082215,-134.29872,3.4726037)" />
    <g
       id="g1054"
       transform="matrix(4.3082215,0,0,4.3082215,-134.29872,3.4726037)" />
    <g
       id="g1357"
       transform="matrix(0.29399179,0,0,0.29399179,-4.646747,230.89477)">
      <path
         d="m 329.5,450.69336 c -73.43652,0 -137.26608,48.37742 -157.45703,118.44336 -56.73014,1.28636 -102.486329,47.83812 -102.486329,104.86133 0,57.83735 47.059129,104.8789 104.896479,104.8789 h 312.19336 c 66.85818,0 121.24364,-54.40162 121.22852,-121.25976 0,-66.8256 -54.40225,-121.19336 -121.24414,-121.19336 -4.02191,0 -8.17384,0.24329 -12.7168,0.74805 C 445.17446,483.68207 390.36601,450.69336 329.5,450.69336 Z m 0,16.29883 c 56.58358,0 107.37068,31.67147 132.51172,82.62109 1.56314,3.17522 4.99914,4.95007 8.5,4.44531 6.13871,-0.92813 11.26617,-1.35156 16.13476,-1.35156 57.86994,0 104.96094,47.05651 104.96094,104.91016 0,57.86993 -47.091,104.96093 -104.96094,104.96093 H 174.45312 c -48.86539,10e-6 -88.613276,-39.73096 -88.613276,-88.58007 0,-48.84915 39.764176,-88.59571 88.613276,-88.59571 l 3.58204,0.19532 c 3.89166,-0.17912 7.19752,-2.47499 8.10937,-6.1875 C 202.42756,513.21959 261.37175,466.99219 329.5,466.99219 Z"
         style="stroke-width:16.283041"
         transform="scale(0.26458333)"
         id="path998"
         inkscape:connector-curvature="0" />
      <path
         d="m 486.64648,536.43945 c -35.04109,0 -68.33904,15.12667 -91.36328,41.52149 -2.9472,3.38687 -2.60562,8.53256 0.78125,11.49609 3.40317,2.94724 8.53261,2.60562 11.4961,-0.78125 19.93047,-22.84513 48.75065,-35.95312 79.08593,-35.95312 57.86994,0 104.96094,47.05846 104.96094,104.91211 0,57.86993 -47.091,104.95898 -104.96094,104.95898 -4.49408,0 -8.14062,3.64846 -8.14062,8.14258 0,4.49412 3.64654,8.14062 8.14062,8.14062 66.85818,0 121.24414,-54.40029 121.24414,-121.24218 0,-66.8256 -54.40225,-121.19532 -121.24414,-121.19532 z"
         style="stroke-width:16.283041"
         transform="scale(0.26458333)"
         id="path1000"
         inkscape:connector-curvature="0" />
      <path
         sodipodi:nodetypes="cccc"
         inkscape:connector-curvature="0"
         id="path1249"
         d="m 99.875388,115.67661 c -1.61511,-20.555446 4.942992,-39.62887 27.963492,-49.332546 -15.92186,40.687586 28.24072,81.653716 64.26601,59.914746 -4.56601,13.54222 -12.30772,21.28163 -28.17658,26.55126"
         style="fill:none;stroke:#000000;stroke-width:4;stroke-linecap:round;stroke-linejoin:round;stroke-miterlimit:4;stroke-dasharray:none;stroke-opacity:1" />
    </g>
    <g
       id="g1704"
       transform="matrix(3.0562015,0,0,3.0562015,-184.70176,42.995369)">
      <g
         id="g1640">
        <g
           id="g1626">
          <path
             id="path1622"
             d="m 25.615,22.324 c -0.276,0 -0.5,-0.224 -0.5,-0.5 0,-0.276 0.224,-0.5 0.5,-0.5 3.555,0 6.446,-2.892 6.446,-6.446 0,-3.553 -2.892,-6.443 -6.446,-6.443 -0.298,0 -0.613,0.026 -0.991,0.083 C 24.41,8.551 24.198,8.439 24.102,8.245 22.558,5.114 19.44,3.17 15.965,3.17 c -4.184,0 -7.804,2.839 -8.804,6.904 -0.056,0.228 -0.278,0.373 -0.498,0.38 L 6.536,10.447 c -0.003,0 -0.006,0 -0.009,0 -3.09,0 -5.527,2.439 -5.527,5.437 0,3 2.441,5.44 5.442,5.44 0.276,0 0.5,0.224 0.5,0.5 0,0.276 -0.224,0.5 -0.5,0.5 C 2.89,22.324 0,19.435 0,15.884 0,12.382 2.81,9.523 6.294,9.444 7.535,5.141 11.455,2.17 15.964,2.17 c 3.738,0 7.104,2.026 8.869,5.311 0.28,-0.031 0.534,-0.046 0.781,-0.046 4.106,0 7.446,3.339 7.446,7.443 0.002,4.106 -3.339,7.446 -7.445,7.446 z"
             inkscape:connector-curvature="0" />
          <path
             id="path1624"
             d="m 25.615,22.324 c -0.276,0 -0.5,-0.224 -0.5,-0.5 0,-0.276 0.224,-0.5 0.5,-0.5 3.555,0 6.446,-2.892 6.446,-6.446 0,-3.553 -2.892,-6.443 -6.446,-6.443 -1.862,0 -3.633,0.805 -4.858,2.208 -0.181,0.209 -0.497,0.23 -0.705,0.048 -0.208,-0.181 -0.229,-0.497 -0.048,-0.705 1.414,-1.621 3.459,-2.55 5.611,-2.55 4.106,0 7.446,3.339 7.446,7.443 10e-4,4.105 -3.34,7.445 -7.446,7.445 z"
             inkscape:connector-curvature="0" />
        </g>
        <g
           id="g1630">
          <path
             id="path1628"
             d="M 8.275,30.892 C 8.224,30.892 8.173,30.884 8.122,30.868 7.859,30.784 7.715,30.502 7.799,30.239 l 0.918,-2.855 c 0.085,-0.263 0.368,-0.407 0.629,-0.323 0.263,0.084 0.408,0.366 0.323,0.629 L 8.751,30.546 C 8.683,30.757 8.486,30.892 8.275,30.892 Z M 10.112,25.18 C 10.061,25.18 10.01,25.172 9.959,25.156 9.696,25.072 9.551,24.79 9.636,24.527 l 0.918,-2.856 c 0.085,-0.263 0.366,-0.405 0.629,-0.323 0.263,0.084 0.407,0.366 0.323,0.629 l -0.918,2.856 c -0.068,0.212 -0.264,0.347 -0.476,0.347 z"
             inkscape:connector-curvature="0" />
        </g>
        <g
           id="g1634">
          <path
             id="path1632"
             d="m 18.275,30.892 c -0.051,0 -0.102,-0.008 -0.153,-0.024 -0.263,-0.084 -0.407,-0.366 -0.323,-0.629 l 0.918,-2.855 c 0.085,-0.263 0.368,-0.407 0.629,-0.323 0.263,0.084 0.408,0.366 0.323,0.629 l -0.918,2.856 c -0.068,0.211 -0.265,0.346 -0.476,0.346 z m 1.837,-5.712 c -0.051,0 -0.102,-0.008 -0.153,-0.024 -0.263,-0.084 -0.408,-0.366 -0.323,-0.629 l 0.918,-2.856 c 0.085,-0.263 0.366,-0.405 0.629,-0.323 0.263,0.084 0.407,0.366 0.323,0.629 l -0.918,2.856 c -0.068,0.212 -0.264,0.347 -0.476,0.347 z"
             inkscape:connector-curvature="0" />
        </g>
        <g
           id="g1638">
          <path
             id="path1636"
             d="m 13.275,30.892 c -0.051,0 -0.102,-0.008 -0.153,-0.024 -0.263,-0.084 -0.407,-0.366 -0.323,-0.629 l 0.918,-2.855 c 0.085,-0.263 0.368,-0.407 0.629,-0.323 0.263,0.084 0.408,0.366 0.323,0.629 l -0.918,2.856 c -0.068,0.211 -0.265,0.346 -0.476,0.346 z m 1.837,-5.712 c -0.051,0 -0.102,-0.008 -0.153,-0.024 -0.263,-0.084 -0.408,-0.366 -0.323,-0.629 l 0.918,-2.856 c 0.085,-0.263 0.366,-0.405 0.629,-0.323 0.263,0.084 0.407,0.366 0.323,0.629 l -0.918,2.856 c -0.068,0.212 -0.264,0.347 -0.476,0.347 z"
             inkscape:connector-curvature="0" />
        </g>
      </g>
      <g
         id="g1642" />
      <g
         id="g1644" />
      <g
         id="g1646" />
      <g
         id="g1648" />
      <g
         id="g1650" />
      <g
         id="g1652" />
      <g
         id="g1654" />
      <g
         id="g1656" />
      <g
         id="g1658" />
      <g
         id="g1660" />
      <g
         id="g1662" />
      <g
         id="g1664" />
      <g
         id="g1666" />
      <g
         id="g1668" />
      <g
         id="g1670" />
    </g>
  </g>
</svg>
