<?xml version="1.0" encoding="UTF-8" standalone="no"?>
<svg
   xmlns:svg="http://www.w3.org/2000/svg"
   xmlns="http://www.w3.org/2000/svg"
   xmlns:sodipodi="http://sodipodi.sourceforge.net/DTD/sodipodi-0.dtd"
   xmlns:inkscape="http://www.inkscape.org/namespaces/inkscape"
   class="logo flex-center"
   version="1.1"
   id="Capa_1"
   x="0px"
   y="0px"
   viewBox="0 0 60 60" />
                
                <path
   d="m 50.976,21.249569 c -0.529,-9 -7.948,-16.1939999 -16.891,-16.1939999 -5.43,0 -10.688,2.663 -13.946,7.0079999 -0.075,-0.039 -0.154,-0.066 -0.23,-0.102 -0.198,-0.096 -0.399,-0.187 -0.604,-0.269 -0.114,-0.045 -0.228,-0.086 -0.343,-0.126 -0.203,-0.071 -0.409,-0.134 -0.619,-0.191 -0.115,-0.031 -0.229,-0.063 -0.345,-0.089 -0.225,-0.051 -0.455,-0.09 -0.687,-0.125 -0.101,-0.015 -0.2,-0.035 -0.302,-0.046 -0.332,-0.037 -0.668,-0.06 -1.009,-0.06 -4.963,0 -9,4.037 -9,9 0,0.127 0.008,0.252 0.016,0.377 v 0.004 c -4.159,2.268 -7.016,7.018 -7.016,11.773 0,7.083 5.762,12.846 12.845,12.846 h 24.508 c 0.104,0 0.207,-0.006 0.311,-0.014 l 0.062,-0.008 0.134,0.008 c 0.102,0.008 0.204,0.014 0.309,0.014 h 9.803 c 6.632,0 12.028,-5.396 12.028,-12.028 0,-5.489 -3.827,-10.412 -9.024,-11.778 z m -3.004,21.806 h -9.803 c -0.059,0 -0.116,-0.005 -0.174,-0.009 l -0.271,-0.011 -0.198,0.011 c -0.057,0.004 -0.115,0.009 -0.173,0.009 H 12.845 c -5.98,0 -10.845,-4.865 -10.845,-10.846 0,-4.154 2.705,-8.466 6.433,-10.253 L 9,21.685569 v -0.63 c 0,-0.127 0.008,-0.256 0.015,-0.386 l 0.009,-0.16 -0.012,-0.21 c -0.006,-0.081 -0.012,-0.162 -0.012,-0.244 0,-3.859 3.141,-7 7,-7 0.309,0 0.614,0.027 0.917,0.067 0.078,0.01 0.156,0.023 0.233,0.036 0.267,0.044 0.53,0.102 0.789,0.177 0.035,0.01 0.071,0.017 0.106,0.027 0.285,0.087 0.563,0.197 0.835,0.321 0.071,0.032 0.14,0.067 0.21,0.101 0.24,0.119 0.475,0.249 0.702,0.396 1.927,1.248 3.208,3.413 3.208,5.875 0,0.553 0.447,1 1,1 0.553,0 1,-0.447 1,-1 0,-2.754 -1.246,-5.219 -3.2,-6.871 2.867,-3.7499999 7.588,-6.1289999 12.285,-6.1289999 7.745,0 14.177,6.1349999 14.848,13.8879999 -1.022,-0.072 -2.552,-0.109 -4.083,0.124 -0.546,0.083 -0.921,0.593 -0.838,1.139 0.075,0.495 0.501,0.85 0.987,0.85 0.05,0 0.101,-0.004 0.151,-0.012 2.227,-0.337 4.548,-0.021 4.684,-0.002 4.656,0.885 8.166,5.174 8.166,9.985 0,5.529 -4.499,10.028 -10.028,10.028 z"
   id="path4214"
   inkscape:connector-curvature="0"
   style="fill:#dddddd" />
                <path
   style="fill:none;fill-rule:evenodd;stroke:#6e798f;stroke-width:1.88671863;stroke-linecap:round;stroke-linejoin:miter;stroke-miterlimit:4;stroke-dasharray:none;stroke-opacity:1"
   d="M 46.062598,44.182418 C 39.335304,42.134455 32.266967,33.347692 35.189453,25.500377"
   id="path4256"
   inkscape:connector-curvature="0" />
                <path
   style="fill:none;fill-rule:evenodd;stroke:#9dac1a;stroke-width:1.88671863;stroke-linecap:round;stroke-linejoin:miter;stroke-miterlimit:4;stroke-dasharray:none;stroke-opacity:1"
   d="M 34.596372,43.984725 C 27.143641,42.33061 25.29264,29.094843 17.990112,30.047329"
   id="path4258"
   inkscape:connector-curvature="0" />
            <svg class="logo" version="1.1" id="Capa_1" x="0px" y="0px" viewBox="0 0 60 60" xml:space="preserve">
                <defs id="defs4248" />
                <path d="M50.976,26.194C50.447,17.194,43.028,10,34.085,10c-5.43,0-10.688,2.663-13.946,7.008c-0.075-0.039-0.154-0.066-0.23-0.102  c-0.198-0.096-0.399-0.187-0.604-0.269c-0.114-0.045-0.228-0.086-0.343-0.126c-0.203-0.071-0.409-0.134-0.619-0.191  c-0.115-0.031-0.229-0.063-0.345-0.089c-0.225-0.051-0.455-0.09-0.687-0.125c-0.101-0.015-0.2-0.035-0.302-0.046  C16.677,16.023,16.341,16,16,16c-4.963,0-9,4.037-9,9c0,0.127,0.008,0.252,0.016,0.377v0.004C2.857,27.649,0,32.399,0,37.154  C0,44.237,5.762,50,12.845,50h24.508c0.104,0,0.207-0.006,0.311-0.014l0.062-0.008l0.134,0.008C37.962,49.994,38.064,50,38.169,50  h9.803C54.604,50,60,44.604,60,37.972C60,32.483,56.173,27.56,50.976,26.194z M47.972,48h-9.803c-0.059,0-0.116-0.005-0.174-0.009  l-0.271-0.011l-0.198,0.011C37.469,47.995,37.411,48,37.353,48H12.845C6.865,48,2,43.135,2,37.154C2,33,4.705,28.688,8.433,26.901  L9,26.63V26c0-0.127,0.008-0.256,0.015-0.386l0.009-0.16l-0.012-0.21C9.006,25.163,9,25.082,9,25c0-3.859,3.141-7,7-7  c0.309,0,0.614,0.027,0.917,0.067c0.078,0.01,0.156,0.023,0.233,0.036c0.267,0.044,0.53,0.102,0.789,0.177  c0.035,0.01,0.071,0.017,0.106,0.027c0.285,0.087,0.563,0.197,0.835,0.321c0.071,0.032,0.14,0.067,0.21,0.101  c0.24,0.119,0.475,0.249,0.702,0.396C21.719,20.373,23,22.538,23,25c0,0.553,0.447,1,1,1s1-0.447,1-1c0-2.754-1.246-5.219-3.2-6.871  C24.667,14.379,29.388,12,34.085,12c7.745,0,14.177,6.135,14.848,13.888c-1.022-0.072-2.552-0.109-4.083,0.124  c-0.546,0.083-0.921,0.593-0.838,1.139c0.075,0.495,0.501,0.85,0.987,0.85c0.05,0,0.101-0.004,0.151-0.012  c2.227-0.337,4.548-0.021,4.684-0.002C54.49,28.872,58,33.161,58,37.972C58,43.501,53.501,48,47.972,48z"
                    fill="#DDDDDD" id="path4214" />
                <path style="fill:none;fill-rule:evenodd;stroke:#6E798F;stroke-width:1.88671863;stroke-linecap:round;stroke-linejoin:miter;stroke-miterlimit:4;stroke-dasharray:none;stroke-opacity:1"
                    d="M 46.062598,49.126849 C 39.335304,47.078886 32.266967,38.292123 35.189453,30.444808" id="path4256" />
                <path style="fill:none;fill-rule:evenodd;stroke:#9DAC1A;stroke-width:1.88671863;stroke-linecap:round;stroke-linejoin:miter;stroke-miterlimit:4;stroke-dasharray:none;stroke-opacity:1"
                    d="M 34.596372,48.929156 C 27.143641,47.275041 25.29264,34.039274 17.990112,34.99176" id="path4258" />
                <text xml:space="preserve" style="font-style:normal;font-variant:normal;font-weight:normal;font-stretch:normal;font-size:7.39939928px;line-height:1.25;font-family:'Century Schoolbook L';-inkscape-font-specification:'Century Schoolbook L';letter-spacing:0px;word-spacing:0px;fill:#FFFFFF;fill-opacity:1;stroke:none;stroke-width:0.18498498"
                    x="-20" y="50" id="text84" transform="scale(0.83604707,1.1961049)">
                    WeatherNow
                </text>
            </svg>
</svg>