<svg xmlns="http://www.w3.org/2000/svg" width="200" height="200" viewBox="0 0 52.917 52.917"><path d="M-128.85-106.676c-1.615-20.555 4.943-39.629 27.964-49.332-15.922 40.687 28.24 81.653 64.266 59.914-4.566 13.543-12.308 21.282-28.177 26.552" fill="none" stroke="#000" stroke-width="4" stroke-linecap="round" stroke-linejoin="round"/><path d="M-173.592-298.554a43.273 43.273 0 00-41.66 31.338c-15.01.34-27.117 12.657-27.117 27.744 0 15.303 12.451 27.75 27.754 27.75h82.601c17.69 0 32.08-14.394 32.075-32.084 0-17.68-14.393-32.066-32.079-32.066-1.064 0-2.162.065-3.364.198-7.604-14.152-22.106-22.88-38.21-22.88zm0 4.312c14.971 0 28.409 8.38 35.06 21.86a2.158 2.158 0 002.25 1.176c1.624-.245 2.98-.357 4.268-.357 15.312 0 27.771 12.45 27.771 27.757 0 15.312-12.46 27.771-27.77 27.771h-82.602c-12.929 0-23.445-10.512-23.445-23.437 0-12.924 10.52-23.44 23.445-23.44l.948.051c1.03-.047 1.904-.655 2.146-1.637a38.985 38.985 0 0137.93-29.744z"/><path d="M-132.014-275.867a32.066 32.066 0 00-24.173 10.985 2.16 2.16 0 00.207 3.042c.9.78 2.258.69 3.042-.207a27.761 27.761 0 0120.924-9.512c15.312 0 27.771 12.45 27.771 27.758 0 15.311-12.46 27.77-27.77 27.77a2.155 2.155 0 000 4.308c17.689 0 32.079-14.393 32.079-32.078 0-17.681-14.394-32.066-32.08-32.066zM-147.652 43.53a1.528 1.528 0 01-1.455-1.996l2.806-8.725a1.532 1.532 0 011.922-.988 1.526 1.526 0 01.988 1.923l-2.806 8.728a1.53 1.53 0 01-1.455 1.058zm5.614-17.457a1.526 1.526 0 01-1.455-1.996l2.806-8.729a1.534 1.534 0 011.923-.987 1.528 1.528 0 01.987 1.923l-2.806 8.728a1.527 1.527 0 01-1.455 1.06zm98.715 45.787a1.528 1.528 0 01-1.455-1.996l2.805-8.725a1.532 1.532 0 011.923-.987 1.526 1.526 0 01.987 1.922l-2.806 8.729a1.53 1.53 0 01-1.454 1.057zm5.614-17.457a1.526 1.526 0 01-1.455-1.996l2.806-8.728a1.534 1.534 0 011.922-.987 1.528 1.528 0 01.987 1.922l-2.805 8.729a1.527 1.527 0 01-1.455 1.06zM-132.37 43.53a1.528 1.528 0 01-1.455-1.996l2.805-8.725a1.532 1.532 0 011.922-.988 1.526 1.526 0 01.988 1.923l-2.806 8.728a1.53 1.53 0 01-1.455 1.058zm5.613-17.457a1.526 1.526 0 01-1.455-1.996l2.806-8.729a1.534 1.534 0 011.923-.987 1.528 1.528 0 01.987 1.923l-2.806 8.728a1.527 1.527 0 01-1.455 1.06zm40.013-246.254a43.273 43.273 0 00-41.66 31.338c-15.01.34-27.116 12.657-27.116 27.744 0 15.303 12.45 27.75 27.754 27.75h82.6c17.69 0 32.08-14.394 32.076-32.084 0-17.68-14.394-32.065-32.08-32.065-1.063 0-2.162.064-3.364.198-7.604-14.153-22.105-22.881-38.21-22.881zm0 4.312c14.972 0 28.409 8.38 35.06 21.86a2.158 2.158 0 002.25 1.176c1.624-.245 2.98-.357 4.269-.357 15.311 0 27.77 12.45 27.77 27.757 0 15.312-12.459 27.771-27.77 27.771h-82.601c-12.93 0-23.446-10.512-23.446-23.437 0-12.924 10.521-23.44 23.446-23.44l.947.051c1.03-.047 1.905-.655 2.146-1.637a38.985 38.985 0 0137.93-29.744z"/><path d="M-45.165-197.494a32.066 32.066 0 00-24.173 10.986 2.16 2.16 0 00.206 3.041c.9.78 2.258.69 3.042-.206a27.761 27.761 0 0120.925-9.513c15.311 0 27.77 12.45 27.77 27.758 0 15.311-12.459 27.77-27.77 27.77a2.155 2.155 0 000 4.309c17.69 0 32.079-14.394 32.079-32.079 0-17.68-14.394-32.066-32.08-32.066zM358.427 79.48h-64.88c-12.02 0-21.8-9.776-21.8-21.796 0-11.85 9.51-21.525 21.299-21.792a33.989 33.989 0 0132.723-24.615c12.65 0 24.04 6.856 30.012 17.972a23.749 23.749 0 012.643-.156c13.891 0 25.197 11.3 25.197 25.187.003 13.895-11.299 25.2-25.194 25.2zm-64.88-40.208c-10.152 0-18.416 8.26-18.416 18.412s8.26 18.41 18.416 18.41h64.88c12.027 0 21.813-9.787 21.813-21.814 0-12.023-9.786-21.803-21.813-21.803-1.011 0-2.077.088-3.353.281a1.695 1.695 0 01-1.766-.924c-5.225-10.588-15.78-17.17-27.54-17.17a30.621 30.621 0 00-29.792 23.363c-.189.771-.876 1.249-1.685 1.286z"/><path d="M355.781 29.249a1.693 1.693 0 010-3.384c12.027 0 21.813-9.786 21.813-21.813 0-12.023-9.786-21.803-21.813-21.803a21.806 21.806 0 00-16.436 7.472 1.696 1.696 0 01-2.389.162 1.696 1.696 0 01-.162-2.389 25.187 25.187 0 0118.987-8.629c13.891 0 25.197 11.3 25.197 25.187 0 13.891-11.302 25.197-25.197 25.197zM-270.923-51.47a2.133 2.133 0 01-2.03-2.785l3.915-12.177a2.138 2.138 0 012.683-1.378 2.13 2.13 0 011.378 2.683l-3.916 12.181c-.29.9-1.13 1.476-2.03 1.476zm7.835-24.363a2.13 2.13 0 01-2.03-2.785l3.915-12.181a2.141 2.141 0 012.683-1.378 2.133 2.133 0 011.378 2.683l-3.916 12.181a2.13 2.13 0 01-2.03 1.48zm34.817 24.363a2.133 2.133 0 01-2.03-2.785l3.915-12.177a2.138 2.138 0 012.683-1.378 2.13 2.13 0 011.377 2.683l-3.915 12.181c-.29.9-1.13 1.476-2.03 1.476zm7.835-24.363a2.13 2.13 0 01-2.03-2.785l3.915-12.181a2.141 2.141 0 012.683-1.378 2.133 2.133 0 011.377 2.683l-3.915 12.181a2.13 2.13 0 01-2.03 1.48zm-29.161 24.363a2.133 2.133 0 01-2.03-2.785l3.915-12.177a2.138 2.138 0 012.683-1.378 2.13 2.13 0 011.377 2.683l-3.915 12.181c-.29.9-1.13 1.476-2.03 1.476zm7.835-24.363a2.13 2.13 0 01-2.03-2.785l3.915-12.181a2.141 2.141 0 012.683-1.378 2.133 2.133 0 011.378 2.683l-3.916 12.181a2.13 2.13 0 01-2.03 1.48zm637.348-161.329c-.433 0-.866-.165-1.198-.497a1.697 1.697 0 01.004-2.396c5.045-5.022 7.823-11.708 7.823-18.828 0-14.653-11.918-26.574-26.574-26.574a26.584 26.584 0 00-20.09 9.18 1.696 1.696 0 01-2.39.17 1.696 1.696 0 01-.169-2.39 29.972 29.972 0 0122.649-10.348c16.517 0 29.958 13.438 29.958 29.958 0 8.027-3.13 15.567-8.815 21.228a1.686 1.686 0 01-1.198.497zm-19.945-61.297a1.693 1.693 0 01-1.692-1.692v-12.7a1.693 1.693 0 013.384 0v12.7c0 .934-.758 1.692-1.692 1.692zm53.974 41.268h-12.7a1.693 1.693 0 010-3.384h12.7a1.693 1.693 0 010 3.384zm-24.791-29.183a1.7 1.7 0 01-1.198-.495 1.693 1.693 0 010-2.392l8.981-8.978a1.693 1.693 0 012.392 2.392l-8.98 8.978a1.686 1.686 0 01-1.195.495zm8.978 67.347a1.7 1.7 0 01-1.198-.494l-8.978-8.974a1.693 1.693 0 010-2.393c.66-.66 1.733-.66 2.393 0l8.978 8.975c.66.66.66 1.732 0 2.392a1.672 1.672 0 01-1.195.494zm-67.351-67.347a1.7 1.7 0 01-1.198-.495l-8.974-8.977a1.693 1.693 0 010-2.393c.66-.66 1.732-.66 2.392 0l8.975 8.978c.66.66.66 1.733 0 2.392a1.686 1.686 0 01-1.195.495zM45.02 18.507a.435.435 0 010-.87 5.608 5.608 0 005.602-5.602 5.608 5.608 0 00-5.603-5.599 5.7 5.7 0 00-.86.072.435.435 0 01-.454-.237c-1.342-2.721-4.052-4.41-7.072-4.41a7.864 7.864 0 00-7.652 6c-.237.345-.15.431-.604.436-.079-.02-.5-.167-.149-.984.85-3.588 4.485-6.322 8.404-6.322a8.703 8.703 0 017.708 4.616c.243-.027.464-.04.679-.04a6.477 6.477 0 016.47 6.468 6.476 6.476 0 01-6.47 6.472z"/><path d="M45.02 18.507a.435.435 0 010-.87 5.608 5.608 0 005.602-5.602 5.608 5.608 0 00-5.603-5.599c-1.618 0-3.157.7-4.222 1.919a.435.435 0 01-.654-.571 6.469 6.469 0 014.876-2.216 6.477 6.477 0 016.472 6.468 6.477 6.477 0 01-6.472 6.47zM33.353 31.741a.607.607 0 010-1.213c4.312 0 7.818-3.507 7.818-7.818 0-4.31-3.508-7.815-7.818-7.815-.362 0-.744.032-1.202.101a.607.607 0 01-.633-.331c-1.873-3.797-5.655-6.155-9.87-6.155a10.975 10.975 0 00-10.677 8.373c-.068.277-.338.453-.605.461l-.154-.008h-.01c-3.748 0-6.704 2.958-6.704 6.594a6.606 6.606 0 006.6 6.598.607.607 0 010 1.213c-4.308 0-7.813-3.504-7.813-7.81 0-4.248 3.408-7.716 7.634-7.812a12.184 12.184 0 0111.728-8.822c4.534 0 8.617 2.457 10.757 6.441.34-.037.648-.055.948-.055 4.98 0 9.03 4.05 9.03 9.027.003 4.98-4.05 9.031-9.03 9.031z"/><path d="M33.353 31.741a.607.607 0 010-1.213c4.312 0 7.818-3.507 7.818-7.818 0-4.31-3.508-7.815-7.818-7.815a7.822 7.822 0 00-5.892 2.679.606.606 0 01-.913-.797 9.027 9.027 0 016.805-3.093c4.98 0 9.03 4.05 9.03 9.027.002 4.98-4.05 9.03-9.03 9.03z"/><path d="M33.852 33.965c-.063-.127-.159-.19-.286-.19h-3.75l3.718-5.88a.289.289 0 000-.317.334.334 0 00-.286-.16h-5.084a.334.334 0 00-.286.16l-4.766 9.533a.289.289 0 000 .317.38.38 0 00.286.16h3.273l-3.56 8.483c-.063.127 0 .286.128.382.032.031.095.031.159.031a.36.36 0 00.254-.095L33.82 34.314a.34.34 0 00.032-.35zm-9.342 10.39l2.923-6.99a.309.309 0 00-.031-.286c-.064-.064-.16-.127-.255-.127h-3.24l4.448-8.898h4.321l-3.75 5.879a.289.289 0 000 .318.334.334 0 00.287.159h3.686zm-.64-10.087c-.093-.184-.23-.276-.415-.276H18.02l5.389-8.52a.418.418 0 000-.461.484.484 0 00-.414-.23h-7.37a.484.484 0 00-.414.23L8.302 38.828a.418.418 0 000 .46.55.55 0 00.415.23h4.744L8.302 51.817c-.092.184 0 .415.184.553.046.046.139.046.23.046a.523.523 0 00.37-.138l14.738-17.502a.494.494 0 00.046-.507zm-13.541 15.06l4.237-10.132a.448.448 0 00-.046-.414c-.092-.092-.23-.184-.369-.184H9.454L15.902 25.7h6.263l-5.434 8.521a.418.418 0 000 .46.48.48 0 00.414.23h5.343z"/></svg>