<?xml version="1.0" encoding="UTF-8" standalone="no"?>
<!-- Generator: Adobe Illustrator 19.0.0, SVG Export Plug-In . SVG Version: 6.00 Build 0)  -->

<svg
   xmlns:dc="http://purl.org/dc/elements/1.1/"
   xmlns:cc="http://creativecommons.org/ns#"
   xmlns:rdf="http://www.w3.org/1999/02/22-rdf-syntax-ns#"
   xmlns:svg="http://www.w3.org/2000/svg"
   xmlns="http://www.w3.org/2000/svg"
   xmlns:sodipodi="http://sodipodi.sourceforge.net/DTD/sodipodi-0.dtd"
   xmlns:inkscape="http://www.inkscape.org/namespaces/inkscape"
   version="1.1"
   id="Capa_1"
   x="0px"
   y="0px"
   viewBox="0 0 200.00001 200.00001"
   xml:space="preserve"
   sodipodi:docname="cloud.svg"
   width="200"
   height="200"
   inkscape:version="0.92.3 (2405546, 2018-03-11)"><metadata
   id="metadata1049"><rdf:RDF><cc:Work
       rdf:about=""><dc:format>image/svg+xml</dc:format><dc:type
         rdf:resource="http://purl.org/dc/dcmitype/StillImage" /><dc:title></dc:title></cc:Work></rdf:RDF></metadata><defs
   id="defs1047" /><sodipodi:namedview
   pagecolor="#ffffff"
   bordercolor="#666666"
   borderopacity="1"
   objecttolerance="10"
   gridtolerance="10"
   guidetolerance="10"
   inkscape:pageopacity="0"
   inkscape:pageshadow="2"
   inkscape:window-width="1366"
   inkscape:window-height="713"
   id="namedview1045"
   showgrid="false"
   inkscape:zoom="1.0090687"
   inkscape:cx="136.85381"
   inkscape:cy="134.01728"
   inkscape:window-x="0"
   inkscape:window-y="27"
   inkscape:window-maximized="1"
   inkscape:current-layer="Capa_1" />
<g
   id="g1012"
   transform="matrix(4.271469,0,0,4.271469,0.99101278,-1.1152374)">
	<path
   d="M 25.615,39.658 H 6.442 C 2.89,39.658 0,36.769 0,33.217 c 0,-3.502 2.81,-6.361 6.294,-6.44 1.24,-4.303 5.16,-7.274 9.67,-7.274 3.738,0 7.104,2.026 8.869,5.311 0.279,-0.031 0.534,-0.046 0.781,-0.046 4.105,0 7.446,3.339 7.446,7.443 10e-4,4.106 -3.339,7.447 -7.445,7.447 z M 6.442,27.776 c -3,0 -5.442,2.441 -5.442,5.441 0,3 2.441,5.44 5.442,5.44 h 19.173 c 3.554,0 6.446,-2.892 6.446,-6.446 0,-3.553 -2.892,-6.443 -6.446,-6.443 -0.299,0 -0.614,0.026 -0.991,0.083 -0.215,0.031 -0.426,-0.078 -0.522,-0.273 -1.544,-3.129 -4.663,-5.074 -8.138,-5.074 -4.184,0 -7.804,2.839 -8.804,6.904 -0.056,0.228 -0.259,0.369 -0.498,0.38 z"
   id="path986"
   inkscape:connector-curvature="0" />
	<path
   d="m 25.615,39.658 c -0.276,0 -0.5,-0.224 -0.5,-0.5 0,-0.276 0.224,-0.5 0.5,-0.5 3.554,0 6.446,-2.892 6.446,-6.446 0,-3.553 -2.892,-6.443 -6.446,-6.443 -1.863,0 -3.633,0.805 -4.857,2.208 -0.182,0.208 -0.497,0.229 -0.706,0.048 -0.208,-0.182 -0.229,-0.498 -0.048,-0.706 1.414,-1.621 3.459,-2.55 5.611,-2.55 4.105,0 7.446,3.339 7.446,7.443 0,4.105 -3.34,7.446 -7.446,7.446 z"
   id="path988"
   inkscape:connector-curvature="0" />
	<g
   id="g1010">
		<path
   d="m 36.044,29.809 c -0.128,0 -0.256,-0.049 -0.354,-0.147 -0.195,-0.196 -0.194,-0.513 0.001,-0.708 1.491,-1.484 2.312,-3.46 2.312,-5.564 0,-4.33 -3.522,-7.853 -7.853,-7.853 -2.278,0 -4.442,0.989 -5.937,2.713 -0.182,0.208 -0.497,0.231 -0.706,0.05 -0.208,-0.181 -0.231,-0.497 -0.05,-0.706 1.685,-1.943 4.125,-3.058 6.693,-3.058 4.881,0 8.853,3.971 8.853,8.853 0,2.372 -0.925,4.6 -2.605,6.273 -0.099,0.099 -0.227,0.147 -0.354,0.147 z"
   id="path990"
   inkscape:connector-curvature="0" />
		<g
   id="g994">
			<path
   d="m 30.15,11.695 c -0.276,0 -0.5,-0.224 -0.5,-0.5 V 7.442 c 0,-0.276 0.224,-0.5 0.5,-0.5 0.276,0 0.5,0.224 0.5,0.5 v 3.753 c 0,0.276 -0.224,0.5 -0.5,0.5 z"
   id="path992"
   inkscape:connector-curvature="0" />
		</g>
		<g
   id="g998">
			<path
   d="m 46.1,23.89 h -3.753 c -0.276,0 -0.5,-0.224 -0.5,-0.5 0,-0.276 0.224,-0.5 0.5,-0.5 H 46.1 c 0.276,0 0.5,0.224 0.5,0.5 0,0.276 -0.224,0.5 -0.5,0.5 z"
   id="path996"
   inkscape:connector-curvature="0" />
		</g>
		<g
   id="g1002">
			<path
   d="m 38.774,15.266 c -0.128,0 -0.256,-0.049 -0.354,-0.146 -0.195,-0.195 -0.195,-0.512 0,-0.707 l 2.654,-2.653 c 0.195,-0.195 0.512,-0.195 0.707,0 0.195,0.195 0.195,0.512 0,0.707 l -2.654,2.653 c -0.097,0.097 -0.225,0.146 -0.353,0.146 z"
   id="path1000"
   inkscape:connector-curvature="0" />
		</g>
		<g
   id="g1008">
			<path
   d="m 41.427,35.168 c -0.128,0 -0.256,-0.049 -0.354,-0.146 L 38.42,32.37 c -0.195,-0.195 -0.195,-0.512 0,-0.707 0.195,-0.195 0.512,-0.195 0.707,0 l 2.653,2.652 c 0.195,0.195 0.195,0.512 0,0.707 -0.097,0.098 -0.225,0.146 -0.353,0.146 z"
   id="path1004"
   inkscape:connector-curvature="0" />
			<path
   d="m 21.524,15.266 c -0.128,0 -0.256,-0.049 -0.354,-0.146 l -2.652,-2.653 c -0.195,-0.195 -0.195,-0.512 0,-0.707 0.195,-0.195 0.512,-0.195 0.707,0 l 2.652,2.653 c 0.195,0.195 0.195,0.512 0,0.707 -0.097,0.097 -0.225,0.146 -0.353,0.146 z"
   id="path1006"
   inkscape:connector-curvature="0" />
		</g>
	</g>
</g>
<g
   id="g1014"
   transform="translate(0,153.4)">
</g>
<g
   id="g1016"
   transform="translate(0,153.4)">
</g>
<g
   id="g1018"
   transform="translate(0,153.4)">
</g>
<g
   id="g1020"
   transform="translate(0,153.4)">
</g>
<g
   id="g1022"
   transform="translate(0,153.4)">
</g>
<g
   id="g1024"
   transform="translate(0,153.4)">
</g>
<g
   id="g1026"
   transform="translate(0,153.4)">
</g>
<g
   id="g1028"
   transform="translate(0,153.4)">
</g>
<g
   id="g1030"
   transform="translate(0,153.4)">
</g>
<g
   id="g1032"
   transform="translate(0,153.4)">
</g>
<g
   id="g1034"
   transform="translate(0,153.4)">
</g>
<g
   id="g1036"
   transform="translate(0,153.4)">
</g>
<g
   id="g1038"
   transform="translate(0,153.4)">
</g>
<g
   id="g1040"
   transform="translate(0,153.4)">
</g>
<g
   id="g1042"
   transform="translate(0,153.4)">
</g>
</svg>