<?xml version="1.0" encoding="UTF-8" standalone="no"?>
<!-- Generator: Adobe Illustrator 16.0.0, SVG Export Plug-In . SVG Version: 6.00 Build 0)  -->

<svg
   xmlns:dc="http://purl.org/dc/elements/1.1/"
   xmlns:cc="http://creativecommons.org/ns#"
   xmlns:rdf="http://www.w3.org/1999/02/22-rdf-syntax-ns#"
   xmlns:svg="http://www.w3.org/2000/svg"
   xmlns="http://www.w3.org/2000/svg"
   xmlns:sodipodi="http://sodipodi.sourceforge.net/DTD/sodipodi-0.dtd"
   xmlns:inkscape="http://www.inkscape.org/namespaces/inkscape"
   version="1.1"
   id="Capa_1"
   x="0px"
   y="0px"
   width="12px"
   height="12px"
   viewBox="0 0 612 612"
   style="enable-background:new 0 0 612 612;"
   xml:space="preserve"
   sodipodi:docname="arrows.svg"
   inkscape:version="0.92.3 (2405546, 2018-03-11)"><metadata
   id="metadata939"><rdf:RDF><cc:Work
       rdf:about=""><dc:format>image/svg+xml</dc:format><dc:type
         rdf:resource="http://purl.org/dc/dcmitype/StillImage" /></cc:Work></rdf:RDF></metadata><defs
   id="defs937" /><sodipodi:namedview
   pagecolor="#ffffff"
   bordercolor="#666666"
   borderopacity="1"
   objecttolerance="10"
   gridtolerance="10"
   guidetolerance="10"
   inkscape:pageopacity="0"
   inkscape:pageshadow="2"
   inkscape:window-width="1366"
   inkscape:window-height="713"
   id="namedview935"
   showgrid="false"
   inkscape:zoom="0.61467452"
   inkscape:cx="162.63971"
   inkscape:cy="377.01063"
   inkscape:window-x="0"
   inkscape:window-y="27"
   inkscape:window-maximized="1"
   inkscape:current-layer="Capa_1" />
<g
   id="g902"
   transform="matrix(0.64956113,-0.64969282,0.64969282,0.64956113,-94.336292,385.91592)"
   style="fill:#ffffff;fill-opacity:1">
	<g
   id="Location"
   style="fill:#ffffff;fill-opacity:1">
		<g
   id="g899"
   style="fill:#ffffff;fill-opacity:1">
			<path
   d="m 573.75,0 c -6.521,0 -12.661,1.625 -18.035,4.514 L 20.215,291.389 C 8.186,297.833 0,310.514 0,325.125 c 0,21.133 17.136,38.25 38.25,38.25 H 248.625 V 573.75 c 0,21.114 17.136,38.25 38.25,38.25 14.592,0 27.291,-8.186 33.736,-20.234 L 607.486,56.266 C 610.374,50.911 612,44.771 612,38.25 612,17.117 594.864,0 573.75,0 Z M 306,497.556 V 344.25 C 306,323.117 288.883,306 267.75,306 H 114.444 L 527.027,84.972 Z"
   id="path897"
   inkscape:connector-curvature="0"
   style="fill:#ffffff;fill-opacity:1" />
		</g>
	</g>
</g>
<g
   id="g904">
</g>
<g
   id="g906">
</g>
<g
   id="g908">
</g>
<g
   id="g910">
</g>
<g
   id="g912">
</g>
<g
   id="g914">
</g>
<g
   id="g916">
</g>
<g
   id="g918">
</g>
<g
   id="g920">
</g>
<g
   id="g922">
</g>
<g
   id="g924">
</g>
<g
   id="g926">
</g>
<g
   id="g928">
</g>
<g
   id="g930">
</g>
<g
   id="g932">
</g>
</svg>