<?xml version="1.0" encoding="UTF-8" standalone="no"?>
<!-- Generator: Adobe Illustrator 19.0.0, SVG Export Plug-In . SVG Version: 6.00 Build 0)  -->

<svg
   xmlns:dc="http://purl.org/dc/elements/1.1/"
   xmlns:cc="http://creativecommons.org/ns#"
   xmlns:rdf="http://www.w3.org/1999/02/22-rdf-syntax-ns#"
   xmlns:svg="http://www.w3.org/2000/svg"
   xmlns="http://www.w3.org/2000/svg"
   xmlns:sodipodi="http://sodipodi.sourceforge.net/DTD/sodipodi-0.dtd"
   xmlns:inkscape="http://www.inkscape.org/namespaces/inkscape"
   version="1.1"
   id="Layer_1"
   x="0px"
   y="0px"
   viewBox="0 0 200 200"
   xml:space="preserve"
   sodipodi:docname="mist.svg"
   width="200"
   height="200"
   inkscape:version="0.92.3 (2405546, 2018-03-11)"><metadata
   id="metadata1539"><rdf:RDF><cc:Work
       rdf:about=""><dc:format>image/svg+xml</dc:format><dc:type
         rdf:resource="http://purl.org/dc/dcmitype/StillImage" /><dc:title></dc:title></cc:Work></rdf:RDF></metadata><defs
   id="defs1537" /><sodipodi:namedview
   pagecolor="#ffffff"
   bordercolor="#666666"
   borderopacity="1"
   objecttolerance="10"
   gridtolerance="10"
   guidetolerance="10"
   inkscape:pageopacity="0"
   inkscape:pageshadow="2"
   inkscape:window-width="1366"
   inkscape:window-height="713"
   id="namedview1535"
   showgrid="false"
   inkscape:zoom="1.1169103"
   inkscape:cx="238.157"
   inkscape:cy="238.157"
   inkscape:window-x="0"
   inkscape:window-y="27"
   inkscape:window-maximized="1"
   inkscape:current-layer="Layer_1" />
<g
   transform="matrix(0.41425504,0,0,0.41425504,1.7906749,-219.66316)"
   id="g1502">
	<g
   id="g1500">
		<g
   id="g1498">
			<path
   d="m 472.733,706.417 c -3.5,-2.9 -34.8,-28.5 -56.8,-28.5 -13,0 -23,8.1 -31.9,15.3 -6.9,5.5 -13.4,10.8 -19.4,10.8 -5.4,0 -11.6,-5.1 -18.2,-10.5 -8.9,-7.3 -19,-15.6 -32.2,-15.6 -13.1,0 -22.9,8.2 -31.6,15.4 -6.7,5.6 -12.9,10.8 -18.8,10.8 -6.1,0 -12.6,-5.3 -19.5,-11 -8.6,-7.1 -18.4,-15.1 -30.9,-15.1 -13,0 -23,8.1 -31.9,15.3 -6.9,5.5 -13.4,10.8 -19.4,10.8 -5.9,0 -12.2,-5.3 -18.8,-10.8 -8.7,-7.2 -18.5,-15.4 -31.6,-15.4 -13.1,0 -22.9,8.2 -31.6,15.4 -6.7,5.6 -12.9,10.8 -18.8,10.8 -10.6,0 -32.7,-14 -45,-23.9 -4.3,-3.5 -10.6,-2.8 -14.1,1.5 -3.5,4.3 -2.8,10.6 1.5,14.1 3.6,2.9 35.7,28.4 57.6,28.4 13.1,0 22.9,-8.2 31.6,-15.4 6.7,-5.6 12.9,-10.8 18.8,-10.8 5.9,0 12.2,5.3 18.8,10.8 8.7,7.2 18.5,15.4 31.6,15.4 13,0 23,-8.1 31.9,-15.3 6.9,-5.5 13.4,-10.8 19.4,-10.8 5.4,0 11.6,5.1 18.2,10.5 8.9,7.3 19,15.6 32.2,15.6 13.1,0 22.9,-8.2 31.6,-15.4 6.7,-5.6 12.9,-10.8 18.8,-10.8 6.1,0 12.6,5.3 19.5,11 8.6,7.1 18.4,15.1 30.9,15.1 13,0 23,-8.1 31.9,-15.3 6.9,-5.5 13.4,-10.8 19.4,-10.8 10.5,0 32,13.9 43.9,23.8 1.9,1.5 4.1,2.3 6.4,2.3 v 0 c 2.9,0 5.7,-1.2 7.8,-3.6 3.5,-4.3 2.9,-10.6 -1.3,-14.1 z"
   id="path1488"
   inkscape:connector-curvature="0" />
			<path
   d="m 3.733,618.317 c 3.6,2.9 35.7,28.4 57.6,28.4 13.1,0 22.9,-8.2 31.6,-15.4 6.7,-5.6 12.9,-10.8 18.8,-10.8 5.9,0 12.2,5.3 18.8,10.8 8.7,7.2 18.5,15.4 31.6,15.4 13,0 23,-8.1 31.9,-15.3 6.9,-5.5 13.4,-10.8 19.4,-10.8 5.4,0 11.6,5.1 18.2,10.5 8.9,7.3 19,15.6 32.2,15.6 13.1,0 22.9,-8.2 31.6,-15.4 6.7,-5.6 12.9,-10.8 18.8,-10.8 6.1,0 12.6,5.3 19.5,11 8.6,7.1 18.4,15.1 30.9,15.1 13,0 23,-8.1 31.9,-15.3 6.9,-5.5 13.4,-10.8 19.4,-10.8 10.5,0 32,13.9 43.9,23.8 1.9,1.5 4.1,2.3 6.4,2.3 v 0 c 2.9,0 5.7,-1.2 7.8,-3.6 3.5,-4.3 2.9,-10.6 -1.3,-14.1 -3.5,-3 -34.8,-28.5 -56.8,-28.5 -13,0 -23,8.1 -31.9,15.3 -6.9,5.5 -13.4,10.8 -19.4,10.8 -5.4,0 -11.6,-5.1 -18.2,-10.5 -8.9,-7.3 -19,-15.6 -32.2,-15.6 -13.1,0 -22.9,8.2 -31.6,15.4 -6.7,5.6 -12.9,10.8 -18.8,10.8 -6.1,0 -12.6,-5.3 -19.5,-11 -8.6,-7.1 -18.4,-15.1 -30.9,-15.1 -13,0 -23,8.1 -31.9,15.3 -6.9,5.5 -13.4,10.8 -19.4,10.8 -5.9,0 -12.2,-5.3 -18.8,-10.8 -8.7,-7.2 -18.5,-15.4 -31.6,-15.4 -13.1,0 -22.9,8.2 -31.6,15.4 -6.7,5.6 -12.9,10.8 -18.8,10.8 -10.6,0 -32.7,-14 -45,-23.9 -4.3,-3.5 -10.6,-2.8 -14.1,1.5 -3.5,4.3 -2.8,10.6 1.5,14.1 z"
   id="path1490"
   inkscape:connector-curvature="0" />
			<path
   d="m 472.733,861.317 c -3.5,-2.9 -34.8,-28.5 -56.8,-28.5 -13,0 -23,8.1 -31.9,15.3 -6.9,5.5 -13.4,10.8 -19.4,10.8 -5.4,0 -11.6,-5.1 -18.2,-10.5 -8.9,-7.3 -19,-15.6 -32.2,-15.6 -13.1,0 -22.9,8.2 -31.6,15.4 -6.7,5.6 -12.9,10.8 -18.8,10.8 -6.1,0 -12.6,-5.3 -19.5,-11 -8.6,-7.1 -18.4,-15.1 -30.9,-15.1 -13,0 -23,8.1 -31.9,15.3 -6.9,5.5 -13.4,10.8 -19.4,10.8 -5.9,0 -12.2,-5.3 -18.8,-10.8 -8.7,-7.2 -18.5,-15.4 -31.6,-15.4 -13.1,0 -22.9,8.2 -31.6,15.4 -6.7,5.6 -12.9,10.8 -18.8,10.8 -10.6,0 -32.7,-14 -45,-23.9 -4.3,-3.5 -10.6,-2.8 -14.1,1.5 -3.5,4.3 -2.8,10.6 1.5,14.1 3.6,2.9 35.7,28.4 57.6,28.4 13.1,0 22.9,-8.2 31.6,-15.4 6.7,-5.6 12.9,-10.8 18.8,-10.8 5.9,0 12.2,5.3 18.8,10.8 8.7,7.2 18.5,15.4 31.6,15.4 13,0 23,-8.1 31.9,-15.3 6.9,-5.5 13.4,-10.8 19.4,-10.8 5.4,0 11.6,5.1 18.2,10.5 8.9,7.3 19,15.6 32.2,15.6 13.1,0 22.9,-8.2 31.6,-15.4 6.7,-5.6 12.9,-10.8 18.8,-10.8 6.1,0 12.6,5.3 19.5,11 8.6,7.1 18.4,15.1 30.9,15.1 13,0 23,-8.1 31.9,-15.3 6.9,-5.5 13.4,-10.8 19.4,-10.8 10.5,0 32,13.9 43.9,23.8 1.9,1.5 4.1,2.3 6.4,2.3 v 0 c 2.9,0 5.7,-1.2 7.8,-3.6 3.5,-4.3 2.9,-10.6 -1.3,-14.1 z"
   id="path1492"
   inkscape:connector-curvature="0" />
			<path
   d="m 472.733,783.917 c -3.5,-2.9 -34.8,-28.5 -56.8,-28.5 -13,0 -23,8.1 -31.9,15.3 -6.9,5.5 -13.4,10.8 -19.4,10.8 -5.4,0 -11.6,-5.1 -18.2,-10.5 -8.9,-7.3 -19,-15.6 -32.2,-15.6 -13.1,0 -22.9,8.2 -31.6,15.4 -6.7,5.6 -12.9,10.8 -18.8,10.8 -6.1,0 -12.6,-5.3 -19.5,-11 -8.6,-7.1 -18.4,-15.1 -30.9,-15.1 -13,0 -23,8.1 -31.9,15.3 -6.9,5.5 -13.4,10.8 -19.4,10.8 -5.9,0 -12.2,-5.3 -18.8,-10.8 -8.7,-7.2 -18.5,-15.4 -31.6,-15.4 -13.1,0 -22.9,8.2 -31.6,15.4 -6.7,5.6 -12.9,10.8 -18.8,10.8 -10.6,0 -32.7,-14 -45,-23.9 -4.3,-3.5 -10.6,-2.8 -14.1,1.5 -3.5,4.3 -2.8,10.6 1.5,14.1 3.6,2.9 35.7,28.4 57.6,28.4 13.1,0 22.9,-8.2 31.6,-15.4 6.7,-5.6 12.9,-10.8 18.8,-10.8 5.9,0 12.2,5.3 18.8,10.8 8.7,7.2 18.5,15.4 31.6,15.4 13,0 23,-8.1 31.9,-15.3 6.9,-5.5 13.4,-10.8 19.4,-10.8 5.4,0 11.6,5.1 18.2,10.5 8.9,7.3 19,15.6 32.2,15.6 13.1,0 22.9,-8.2 31.6,-15.4 6.7,-5.6 12.9,-10.8 18.8,-10.8 6.1,0 12.6,5.3 19.5,11 8.6,7.1 18.4,15.1 30.9,15.1 13,0 23,-8.1 31.9,-15.3 6.9,-5.5 13.4,-10.8 19.4,-10.8 10.5,0 32,13.9 43.9,23.8 1.9,1.5 4.1,2.3 6.4,2.3 v 0 c 2.9,0 5.7,-1.3 7.8,-3.6 3.5,-4.3 2.9,-10.6 -1.3,-14.1 z"
   id="path1494"
   inkscape:connector-curvature="0" />
			<path
   d="m 472.733,938.817 c -3.5,-3 -34.8,-28.5 -56.8,-28.5 -13,0 -23,8.1 -31.9,15.3 -6.9,5.5 -13.4,10.8 -19.4,10.8 -5.4,0 -11.6,-5.1 -18.2,-10.5 -8.9,-7.3 -19,-15.6 -32.2,-15.6 -13.1,0 -22.9,8.2 -31.6,15.4 -6.7,5.6 -12.9,10.8 -18.8,10.8 -6.1,0 -12.6,-5.3 -19.5,-11 -8.6,-7.1 -18.4,-15.1 -30.9,-15.1 -13,0 -23,8.1 -31.9,15.3 -6.9,5.5 -13.4,10.8 -19.4,10.8 -5.9,0 -12.2,-5.3 -18.8,-10.8 -8.7,-7.2 -18.5,-15.4 -31.6,-15.4 -13.1,0 -22.9,8.2 -31.6,15.4 -6.7,5.6 -12.9,10.8 -18.8,10.8 -10.6,0 -32.7,-14 -45,-23.9 -4.3,-3.5 -10.6,-2.8 -14.1,1.5 -3.5,4.3 -2.8,10.6 1.5,14.1 3.6,2.9 35.7,28.4 57.6,28.4 13.1,0 22.9,-8.2 31.6,-15.4 6.7,-5.6 12.9,-10.8 18.8,-10.8 5.9,0 12.2,5.3 18.8,10.8 8.7,7.2 18.5,15.4 31.6,15.4 13,0 23,-8.1 31.9,-15.3 6.9,-5.5 13.4,-10.8 19.4,-10.8 5.4,0 11.6,5.1 18.2,10.5 8.9,7.3 19,15.6 32.2,15.6 13.1,0 22.9,-8.2 31.6,-15.4 6.7,-5.6 12.9,-10.8 18.8,-10.8 6.1,0 12.6,5.3 19.5,11 8.6,7.1 18.4,15.1 30.9,15.1 13,0 23,-8.1 31.9,-15.3 6.9,-5.5 13.4,-10.8 19.4,-10.8 10.5,0 32,13.9 43.9,23.8 1.9,1.5 4.1,2.3 6.4,2.3 v 0 c 2.9,0 5.7,-1.2 7.8,-3.6 3.5,-4.3 2.9,-10.6 -1.3,-14.1 z"
   id="path1496"
   inkscape:connector-curvature="0" />
		</g>
	</g>
</g>
<g
   id="g1504"
   transform="translate(0,-276.314)">
</g>
<g
   id="g1506"
   transform="translate(0,-276.314)">
</g>
<g
   id="g1508"
   transform="translate(0,-276.314)">
</g>
<g
   id="g1510"
   transform="translate(0,-276.314)">
</g>
<g
   id="g1512"
   transform="translate(0,-276.314)">
</g>
<g
   id="g1514"
   transform="translate(0,-276.314)">
</g>
<g
   id="g1516"
   transform="translate(0,-276.314)">
</g>
<g
   id="g1518"
   transform="translate(0,-276.314)">
</g>
<g
   id="g1520"
   transform="translate(0,-276.314)">
</g>
<g
   id="g1522"
   transform="translate(0,-276.314)">
</g>
<g
   id="g1524"
   transform="translate(0,-276.314)">
</g>
<g
   id="g1526"
   transform="translate(0,-276.314)">
</g>
<g
   id="g1528"
   transform="translate(0,-276.314)">
</g>
<g
   id="g1530"
   transform="translate(0,-276.314)">
</g>
<g
   id="g1532"
   transform="translate(0,-276.314)">
</g>
</svg>