<?xml version="1.0" encoding="UTF-8" standalone="no"?>
<!-- Generator: Adobe Illustrator 19.0.0, SVG Export Plug-In . SVG Version: 6.00 Build 0)  -->

<svg
   xmlns:dc="http://purl.org/dc/elements/1.1/"
   xmlns:cc="http://creativecommons.org/ns#"
   xmlns:rdf="http://www.w3.org/1999/02/22-rdf-syntax-ns#"
   xmlns:svg="http://www.w3.org/2000/svg"
   xmlns="http://www.w3.org/2000/svg"
   xmlns:sodipodi="http://sodipodi.sourceforge.net/DTD/sodipodi-0.dtd"
   xmlns:inkscape="http://www.inkscape.org/namespaces/inkscape"
   version="1.1"
   id="Capa_1"
   x="0px"
   y="0px"
   viewBox="0 0 200 200"
   xml:space="preserve"
   sodipodi:docname="moon.svg"
   width="200"
   height="200"
   inkscape:version="0.92.3 (2405546, 2018-03-11)"><metadata
   id="metadata1740"><rdf:RDF><cc:Work
       rdf:about=""><dc:format>image/svg+xml</dc:format><dc:type
         rdf:resource="http://purl.org/dc/dcmitype/StillImage" /><dc:title></dc:title></cc:Work></rdf:RDF></metadata><defs
   id="defs1738" /><sodipodi:namedview
   pagecolor="#ffffff"
   bordercolor="#666666"
   borderopacity="1"
   objecttolerance="10"
   gridtolerance="10"
   guidetolerance="10"
   inkscape:pageopacity="0"
   inkscape:pageshadow="2"
   inkscape:window-width="1366"
   inkscape:window-height="713"
   id="namedview1736"
   showgrid="false"
   inkscape:zoom="1.3883488"
   inkscape:cx="191.5945"
   inkscape:cy="191.5945"
   inkscape:window-x="0"
   inkscape:window-y="27"
   inkscape:window-maximized="1"
   inkscape:current-layer="Capa_1" />

<g
   id="g1691"
   transform="translate(0,-183.189)">
	<g
   id="g1689">
		
	</g>
</g>

<g
   id="g1703"
   transform="matrix(0.53436041,0,0,0.53436041,6.4825214,-3.2199443)">
	<g
   id="g1701">
		<path
   d="m 353.504,254.298 c -2.279,-2.359 -5.767,-3.089 -8.8,-1.84 -86.708,35.894 -186.097,-5.298 -221.992,-92.007 -18.227,-44.031 -17.127,-93.693 3.032,-136.873 1.889,-3.994 0.182,-8.763 -3.812,-10.652 -2.05,-0.97 -4.416,-1.023 -6.508,-0.148 -95.061,39.049 -140.468,147.767 -101.419,242.828 39.049,95.061 147.767,140.468 242.829,101.419 43.356,-17.81 78.394,-51.325 98.111,-93.848 1.387,-2.974 0.816,-6.495 -1.441,-8.879 z m -167.28,100.8 C 92.247,355.082 16.077,278.886 16.093,184.909 16.103,123.201 49.521,66.335 103.424,36.298 c -6.383,18.946 -9.626,38.808 -9.6,58.8 0.005,102.813 83.356,186.156 186.169,186.151 17.231,-0.001 34.378,-2.394 50.951,-7.111 -31.025,50.165 -85.737,80.772 -144.72,80.96 z"
   id="path1699"
   inkscape:connector-curvature="0" />
	</g>
</g>
<g
   id="g1705"
   transform="translate(0,-183.189)">
</g>
<g
   id="g1707"
   transform="translate(0,-183.189)">
</g>
<g
   id="g1709"
   transform="translate(0,-183.189)">
</g>
<g
   id="g1711"
   transform="translate(0,-183.189)">
</g>
<g
   id="g1713"
   transform="translate(0,-183.189)">
</g>
<g
   id="g1715"
   transform="translate(0,-183.189)">
</g>
<g
   id="g1717"
   transform="translate(0,-183.189)">
</g>
<g
   id="g1719"
   transform="translate(0,-183.189)">
</g>
<g
   id="g1721"
   transform="translate(0,-183.189)">
</g>
<g
   id="g1723"
   transform="translate(0,-183.189)">
</g>
<g
   id="g1725"
   transform="translate(0,-183.189)">
</g>
<g
   id="g1727"
   transform="translate(0,-183.189)">
</g>
<g
   id="g1729"
   transform="translate(0,-183.189)">
</g>
<g
   id="g1731"
   transform="translate(0,-183.189)">
</g>
<g
   id="g1733"
   transform="translate(0,-183.189)">
</g>
</svg>