<?xml version="1.0" encoding="UTF-8" standalone="no"?>
<!-- Created with Inkscape (http://www.inkscape.org/) -->

<svg
   xmlns:dc="http://purl.org/dc/elements/1.1/"
   xmlns:cc="http://creativecommons.org/ns#"
   xmlns:rdf="http://www.w3.org/1999/02/22-rdf-syntax-ns#"
   xmlns:svg="http://www.w3.org/2000/svg"
   xmlns="http://www.w3.org/2000/svg"
   xmlns:sodipodi="http://sodipodi.sourceforge.net/DTD/sodipodi-0.dtd"
   xmlns:inkscape="http://www.inkscape.org/namespaces/inkscape"
   width="200"
   height="200"
   viewBox="0 0 52.916665 52.916668"
   version="1.1"
   id="svg8"
   inkscape:version="0.92.3 (2405546, 2018-03-11)"
   sodipodi:docname="s-cloud.svg">
  <defs
     id="defs2" />
  <sodipodi:namedview
     id="base"
     pagecolor="#ffffff"
     bordercolor="#666666"
     borderopacity="1.0"
     inkscape:pageopacity="0.0"
     inkscape:pageshadow="2"
     inkscape:zoom="1.979899"
     inkscape:cx="89.777739"
     inkscape:cy="121.66269"
     inkscape:document-units="mm"
     inkscape:current-layer="layer1"
     showgrid="false"
     inkscape:window-width="1366"
     inkscape:window-height="713"
     inkscape:window-x="0"
     inkscape:window-y="27"
     inkscape:window-maximized="1"
     units="px" />
  <metadata
     id="metadata5">
    <rdf:RDF>
      <cc:Work
         rdf:about="">
        <dc:format>image/svg+xml</dc:format>
        <dc:type
           rdf:resource="http://purl.org/dc/dcmitype/StillImage" />
        <dc:title></dc:title>
      </cc:Work>
    </rdf:RDF>
  </metadata>
  <g
     inkscape:label="Layer 1"
     inkscape:groupmode="layer"
     id="layer1"
     transform="translate(0,-244.08332)">
    <g
       id="g1026"
       transform="matrix(4.3082215,0,0,4.3082215,-134.29872,3.4726037)" />
    <g
       id="g1028"
       transform="matrix(4.3082215,0,0,4.3082215,-134.29872,3.4726037)" />
    <g
       id="g1030"
       transform="matrix(4.3082215,0,0,4.3082215,-134.29872,3.4726037)" />
    <g
       id="g1032"
       transform="matrix(4.3082215,0,0,4.3082215,-134.29872,3.4726037)" />
    <g
       id="g1034"
       transform="matrix(4.3082215,0,0,4.3082215,-134.29872,3.4726037)" />
    <g
       id="g1036"
       transform="matrix(4.3082215,0,0,4.3082215,-134.29872,3.4726037)" />
    <g
       id="g1038"
       transform="matrix(4.3082215,0,0,4.3082215,-134.29872,3.4726037)" />
    <g
       id="g1040"
       transform="matrix(4.3082215,0,0,4.3082215,-134.29872,3.4726037)" />
    <g
       id="g1042"
       transform="matrix(4.3082215,0,0,4.3082215,-134.29872,3.4726037)" />
    <g
       id="g1044"
       transform="matrix(4.3082215,0,0,4.3082215,-134.29872,3.4726037)" />
    <g
       id="g1046"
       transform="matrix(4.3082215,0,0,4.3082215,-134.29872,3.4726037)" />
    <g
       id="g1048"
       transform="matrix(4.3082215,0,0,4.3082215,-134.29872,3.4726037)" />
    <g
       id="g1050"
       transform="matrix(4.3082215,0,0,4.3082215,-134.29872,3.4726037)" />
    <g
       id="g1052"
       transform="matrix(4.3082215,0,0,4.3082215,-134.29872,3.4726037)" />
    <g
       id="g1054"
       transform="matrix(4.3082215,0,0,4.3082215,-134.29872,3.4726037)" />
    <g
       id="g1831"
       transform="matrix(0.37037149,0,0,0.37037149,-6.5869408,209.26517)">
      <path
         d="m 87.180207,119.24595 c -19.430079,0 -36.318316,12.79986 -41.660505,31.33814 -15.009849,0.34035 -27.116174,12.65717 -27.116174,27.74456 0,15.3028 12.451061,27.74921 27.753859,27.74921 h 82.601163 c 17.68956,0 32.07904,-14.39376 32.07504,-32.08331 0,-17.68094 -14.39393,-32.06575 -32.07918,-32.06575 -1.06413,0 -2.16266,0.0644 -3.36465,0.19792 -7.60402,-14.15251 -22.10542,-22.88077 -38.209553,-22.88077 z m 0,4.3124 c 14.971073,0 28.408493,8.37974 35.060393,21.86016 0.41358,0.84011 1.32269,1.30971 2.24896,1.17616 1.6242,-0.24557 2.98084,-0.3576 4.26899,-0.3576 15.31142,0 27.77091,12.45036 27.77091,27.75748 0,15.31141 -12.45949,27.77091 -27.77091,27.77091 H 46.157387 c -12.928967,0 -23.445595,-10.51215 -23.445595,-23.43681 0,-12.92467 10.520938,-23.44095 23.445595,-23.44095 l 0.947748,0.0517 c 1.029669,-0.0474 1.904344,-0.65484 2.145605,-1.63711 4.308218,-17.51292 19.903868,-29.74392 37.929467,-29.74392 z"
         style="stroke-width:4.30822134"
         id="path998"
         inkscape:connector-curvature="0" />
      <path
         d="m 128.75855,141.93294 c -9.27129,0 -18.08137,4.00226 -24.1732,10.98589 -0.77978,0.89611 -0.68941,2.25757 0.2067,3.04167 0.90042,0.77979 2.25759,0.68941 3.04168,-0.2067 5.27327,-6.04444 12.89861,-9.5126 20.92482,-9.5126 15.31142,0 27.77091,12.45089 27.77091,27.758 0,15.31142 -12.45949,27.77039 -27.77091,27.77039 -1.18906,0 -2.15388,0.96533 -2.15388,2.15439 0,1.18907 0.96482,2.15388 2.15388,2.15388 17.68956,0 32.07917,-14.39341 32.07917,-32.07866 0,-17.68094 -14.39392,-32.06626 -32.07917,-32.06626 z"
         style="stroke-width:4.30822134"
         id="path1000"
         inkscape:connector-curvature="0" />
    </g>
    <path
       style="fill:none;stroke:#000000;stroke-width:4;stroke-linecap:round;stroke-linejoin:round;stroke-miterlimit:4;stroke-dasharray:none;stroke-opacity:1"
       d="m -128.84968,137.40755 c -1.61511,-20.55545 4.94299,-39.628874 27.96349,-49.33255 -15.92186,40.68759 28.240724,81.65372 64.266014,59.91475 -4.56601,13.54222 -12.30772,21.28163 -28.17658,26.55126"
       id="path1249"
       inkscape:connector-curvature="0"
       sodipodi:nodetypes="cccc" />
    <g
       id="g1704"
       transform="matrix(3.0562015,0,0,3.0562015,-184.70176,42.995369)">
      <g
         id="g1640">
        <g
           id="g1626">
          <path
             id="path1622"
             d="m 25.615,22.324 c -0.276,0 -0.5,-0.224 -0.5,-0.5 0,-0.276 0.224,-0.5 0.5,-0.5 3.555,0 6.446,-2.892 6.446,-6.446 0,-3.553 -2.892,-6.443 -6.446,-6.443 -0.298,0 -0.613,0.026 -0.991,0.083 C 24.41,8.551 24.198,8.439 24.102,8.245 22.558,5.114 19.44,3.17 15.965,3.17 c -4.184,0 -7.804,2.839 -8.804,6.904 -0.056,0.228 -0.278,0.373 -0.498,0.38 L 6.536,10.447 c -0.003,0 -0.006,0 -0.009,0 -3.09,0 -5.527,2.439 -5.527,5.437 0,3 2.441,5.44 5.442,5.44 0.276,0 0.5,0.224 0.5,0.5 0,0.276 -0.224,0.5 -0.5,0.5 C 2.89,22.324 0,19.435 0,15.884 0,12.382 2.81,9.523 6.294,9.444 7.535,5.141 11.455,2.17 15.964,2.17 c 3.738,0 7.104,2.026 8.869,5.311 0.28,-0.031 0.534,-0.046 0.781,-0.046 4.106,0 7.446,3.339 7.446,7.443 0.002,4.106 -3.339,7.446 -7.445,7.446 z"
             inkscape:connector-curvature="0" />
          <path
             id="path1624"
             d="m 25.615,22.324 c -0.276,0 -0.5,-0.224 -0.5,-0.5 0,-0.276 0.224,-0.5 0.5,-0.5 3.555,0 6.446,-2.892 6.446,-6.446 0,-3.553 -2.892,-6.443 -6.446,-6.443 -1.862,0 -3.633,0.805 -4.858,2.208 -0.181,0.209 -0.497,0.23 -0.705,0.048 -0.208,-0.181 -0.229,-0.497 -0.048,-0.705 1.414,-1.621 3.459,-2.55 5.611,-2.55 4.106,0 7.446,3.339 7.446,7.443 10e-4,4.105 -3.34,7.445 -7.446,7.445 z"
             inkscape:connector-curvature="0" />
        </g>
        <g
           id="g1630">
          <path
             id="path1628"
             d="M 8.275,30.892 C 8.224,30.892 8.173,30.884 8.122,30.868 7.859,30.784 7.715,30.502 7.799,30.239 l 0.918,-2.855 c 0.085,-0.263 0.368,-0.407 0.629,-0.323 0.263,0.084 0.408,0.366 0.323,0.629 L 8.751,30.546 C 8.683,30.757 8.486,30.892 8.275,30.892 Z M 10.112,25.18 C 10.061,25.18 10.01,25.172 9.959,25.156 9.696,25.072 9.551,24.79 9.636,24.527 l 0.918,-2.856 c 0.085,-0.263 0.366,-0.405 0.629,-0.323 0.263,0.084 0.407,0.366 0.323,0.629 l -0.918,2.856 c -0.068,0.212 -0.264,0.347 -0.476,0.347 z"
             inkscape:connector-curvature="0" />
        </g>
        <g
           id="g1634">
          <path
             id="path1632"
             d="m 18.275,30.892 c -0.051,0 -0.102,-0.008 -0.153,-0.024 -0.263,-0.084 -0.407,-0.366 -0.323,-0.629 l 0.918,-2.855 c 0.085,-0.263 0.368,-0.407 0.629,-0.323 0.263,0.084 0.408,0.366 0.323,0.629 l -0.918,2.856 c -0.068,0.211 -0.265,0.346 -0.476,0.346 z m 1.837,-5.712 c -0.051,0 -0.102,-0.008 -0.153,-0.024 -0.263,-0.084 -0.408,-0.366 -0.323,-0.629 l 0.918,-2.856 c 0.085,-0.263 0.366,-0.405 0.629,-0.323 0.263,0.084 0.407,0.366 0.323,0.629 l -0.918,2.856 c -0.068,0.212 -0.264,0.347 -0.476,0.347 z"
             inkscape:connector-curvature="0" />
        </g>
        <g
           id="g1638">
          <path
             id="path1636"
             d="m 13.275,30.892 c -0.051,0 -0.102,-0.008 -0.153,-0.024 -0.263,-0.084 -0.407,-0.366 -0.323,-0.629 l 0.918,-2.855 c 0.085,-0.263 0.368,-0.407 0.629,-0.323 0.263,0.084 0.408,0.366 0.323,0.629 l -0.918,2.856 c -0.068,0.211 -0.265,0.346 -0.476,0.346 z m 1.837,-5.712 c -0.051,0 -0.102,-0.008 -0.153,-0.024 -0.263,-0.084 -0.408,-0.366 -0.323,-0.629 l 0.918,-2.856 c 0.085,-0.263 0.366,-0.405 0.629,-0.323 0.263,0.084 0.407,0.366 0.323,0.629 l -0.918,2.856 c -0.068,0.212 -0.264,0.347 -0.476,0.347 z"
             inkscape:connector-curvature="0" />
        </g>
      </g>
      <g
         id="g1642" />
      <g
         id="g1644" />
      <g
         id="g1646" />
      <g
         id="g1648" />
      <g
         id="g1650" />
      <g
         id="g1652" />
      <g
         id="g1654" />
      <g
         id="g1656" />
      <g
         id="g1658" />
      <g
         id="g1660" />
      <g
         id="g1662" />
      <g
         id="g1664" />
      <g
         id="g1666" />
      <g
         id="g1668" />
      <g
         id="g1670" />
    </g>
  </g>
</svg>
