<?xml version="1.0" encoding="UTF-8" standalone="no"?>
<!-- Generator: Adobe Illustrator 19.0.0, SVG Export Plug-In . SVG Version: 6.00 Build 0)  -->

<svg
   xmlns:dc="http://purl.org/dc/elements/1.1/"
   xmlns:cc="http://creativecommons.org/ns#"
   xmlns:rdf="http://www.w3.org/1999/02/22-rdf-syntax-ns#"
   xmlns:svg="http://www.w3.org/2000/svg"
   xmlns="http://www.w3.org/2000/svg"
   xmlns:sodipodi="http://sodipodi.sourceforge.net/DTD/sodipodi-0.dtd"
   xmlns:inkscape="http://www.inkscape.org/namespaces/inkscape"
   version="1.1"
   id="Capa_1"
   x="0px"
   y="0px"
   viewBox="0 0 200 200"
   xml:space="preserve"
   sodipodi:docname="sun.svg"
   width="200"
   height="200"
   inkscape:version="0.92.3 (2405546, 2018-03-11)"><metadata
   id="metadata4075"><rdf:RDF><cc:Work
       rdf:about=""><dc:format>image/svg+xml</dc:format><dc:type
         rdf:resource="http://purl.org/dc/dcmitype/StillImage" /><dc:title></dc:title></cc:Work></rdf:RDF></metadata><defs
   id="defs4073" /><sodipodi:namedview
   pagecolor="#ffffff"
   bordercolor="#666666"
   borderopacity="1"
   objecttolerance="10"
   gridtolerance="10"
   guidetolerance="10"
   inkscape:pageopacity="0"
   inkscape:pageshadow="2"
   inkscape:window-width="1366"
   inkscape:window-height="713"
   id="namedview4071"
   showgrid="false"
   inkscape:zoom="1.7592593"
   inkscape:cx="108.15774"
   inkscape:cy="149.3498"
   inkscape:window-x="0"
   inkscape:window-y="27"
   inkscape:window-maximized="1"
   inkscape:current-layer="Capa_1" />








<g
   id="g4104"
   transform="matrix(0.64661655,0,0,0.64661655,2.8421052,67.834589)"><g
     transform="translate(0,-102.39999)"
     id="g3990">
	<g
   id="g3988">
		<path
   inkscape:connector-curvature="0"
   id="path3986"
   d="M 204.8,97.6 C 191.2,84 172,75.2 151.2,75.2 c -20.8,0 -40,8.4 -53.6,22.4 -13.6,13.6 -22.4,32.8 -22.4,53.6 0,20.8 8.8,40 22.4,53.6 13.6,13.6 32.8,22.4 53.6,22.4 20.8,0 40,-8.4 53.6,-22.4 13.6,-13.6 22.4,-32.8 22.4,-53.6 0,-20.8 -8.4,-40 -22.4,-53.6 z m -14.4,92.8 c -10,10 -24,16 -39.2,16 -15.2,0 -29.2,-6 -39.2,-16 -10,-10 -16,-24 -16,-39.2 0,-15.2 6,-29.2 16,-39.2 10,-10 24,-16 39.2,-16 15.2,0 29.2,6 39.2,16 10,10 16,24 16,39.2 0,15.2 -6,29.2 -16,39.2 z" />
	</g>
</g><g
     transform="translate(0,-102.39999)"
     id="g3996">
	<g
   id="g3994">
		<path
   inkscape:connector-curvature="0"
   id="path3992"
   d="m 292,140.8 h -30.8 c -5.6,0 -10.4,4.8 -10.4,10.4 0,5.6 4.8,10.4 10.4,10.4 H 292 c 5.6,0 10.4,-4.8 10.4,-10.4 0,-5.6 -4.8,-10.4 -10.4,-10.4 z" />
	</g>
</g><g
     transform="translate(0,-102.39999)"
     id="g4002">
	<g
   id="g4000">
		<path
   inkscape:connector-curvature="0"
   id="path3998"
   d="m 151.2,250.8 c -5.6,0 -10.4,4.8 -10.4,10.4 V 292 c 0,5.6 4.8,10.4 10.4,10.4 5.6,0 10.4,-4.8 10.4,-10.4 v -30.8 c 0,-5.6 -4.8,-10.4 -10.4,-10.4 z" />
	</g>
</g><g
     transform="translate(0,-102.39999)"
     id="g4008">
	<g
   id="g4006">
		<path
   inkscape:connector-curvature="0"
   id="path4004"
   d="m 258,243.6 -22,-22 c -3.6,-4 -10.4,-4 -14.4,0 -4,4 -4,10.4 0,14.4 l 22,22 c 4,4 10.4,4 14.4,0 4,-4 4,-10.4 0,-14.4 z" />
	</g>
</g><g
     transform="translate(0,-102.39999)"
     id="g4014">
	<g
   id="g4012">
		<path
   inkscape:connector-curvature="0"
   id="path4010"
   d="m 151.2,0 c -5.6,0 -10.4,4.8 -10.4,10.4 v 30.8 c 0,5.6 4.8,10.4 10.4,10.4 5.6,0 10.4,-4.8 10.4,-10.4 V 10.4 C 161.6,4.8 156.8,0 151.2,0 Z" />
	</g>
</g><g
     transform="translate(0,-102.39999)"
     id="g4020">
	<g
   id="g4018">
		<path
   inkscape:connector-curvature="0"
   id="path4016"
   d="m 258.4,44.4 c -4,-4 -10.4,-4 -14.4,0 l -22,22 c -4,4 -4,10.4 0,14.4 3.6,4 10.4,4 14.4,0 l 22,-22 c 4,-4 4,-10.4 0,-14.4 z" />
	</g>
</g><g
     transform="translate(0,-102.39999)"
     id="g4026">
	<g
   id="g4024">
		<path
   inkscape:connector-curvature="0"
   id="path4022"
   d="M 41.2,140.8 H 10.4 c -5.6,0 -10.4,4.8 -10.4,10.4 0,5.6 4.4,10.4 10.4,10.4 h 30.8 c 5.6,0 10.4,-4.8 10.4,-10.4 0,-5.6 -4.8,-10.4 -10.4,-10.4 z" />
	</g>
</g><g
     transform="translate(0,-102.39999)"
     id="g4032">
	<g
   id="g4030">
		<path
   inkscape:connector-curvature="0"
   id="path4028"
   d="m 80.4,221.6 c -3.6,-4 -10.4,-4 -14.4,0 l -22,22 c -4,4 -4,10.4 0,14.4 4,4 10.4,4 14.4,0 l 22,-22 c 4,-4 4,-10.4 0,-14.4 z" />
	</g>
</g><g
     transform="translate(0,-102.39999)"
     id="g4038">
	<g
   id="g4036">
		<path
   inkscape:connector-curvature="0"
   id="path4034"
   d="m 80.4,66.4 -22,-22 c -4,-4 -10.4,-4 -14.4,0 -4,4 -4,10.4 0,14.4 l 22,22 c 4,4 10.4,4 14.4,0 4,-4 4,-10.4 0,-14.4 z" />
	</g>
</g></g>
<g
   id="g4040"
   transform="translate(0,-102.39999)">
</g>
<g
   id="g4042"
   transform="translate(0,-102.39999)">
</g>
<g
   id="g4044"
   transform="translate(0,-102.39999)">
</g>
<g
   id="g4046"
   transform="translate(0,-102.39999)">
</g>
<g
   id="g4048"
   transform="translate(0,-102.39999)">
</g>
<g
   id="g4050"
   transform="translate(0,-102.39999)">
</g>
<g
   id="g4052"
   transform="translate(0,-102.39999)">
</g>
<g
   id="g4054"
   transform="translate(0,-102.39999)">
</g>
<g
   id="g4056"
   transform="translate(0,-102.39999)">
</g>
<g
   id="g4058"
   transform="translate(0,-102.39999)">
</g>
<g
   id="g4060"
   transform="translate(0,-102.39999)">
</g>
<g
   id="g4062"
   transform="translate(0,-102.39999)">
</g>
<g
   id="g4064"
   transform="translate(0,-102.39999)">
</g>
<g
   id="g4066"
   transform="translate(0,-102.39999)">
</g>
<g
   id="g4068"
   transform="translate(0,-102.39999)">
</g>
</svg>